<svg width="24" height="24" viewBox="0 0 24 24" xmlns="http://www.w3.org/2000/svg">
<path d="M20.4875 6.6625C19.8531 6.93594 19.1641 7.13281 18.4531 7.20937C19.1859 6.77187 19.7437 6.08281 20.0063 5.2625C19.3281 5.66719 18.5625 5.9625 17.7641 6.11562C17.1188 5.42656 16.2 5 15.1828 5C13.225 5 11.65 6.58594 11.65 8.53281C11.65 8.80625 11.6828 9.07969 11.7375 9.34219C8.80625 9.18906 6.19219 7.78906 4.45312 5.64531C4.14688 6.17031 3.97187 6.77187 3.97187 7.42812C3.97187 8.65312 4.59531 9.73594 5.54688 10.3703C4.96719 10.3484 4.42031 10.1844 3.95 9.92188V9.96562C3.95 11.6828 5.16406 13.1047 6.78281 13.4328C6.4875 13.5094 6.17031 13.5531 5.85313 13.5531C5.62344 13.5531 5.40469 13.5312 5.18594 13.4984C5.63437 14.8984 6.93594 15.9156 8.48906 15.9484C7.275 16.9 5.75469 17.4578 4.10313 17.4578C3.80781 17.4578 3.53438 17.4469 3.25 17.4141C4.81406 18.4203 6.67344 19 8.675 19C15.1719 19 18.7266 13.6187 18.7266 8.94844C18.7266 8.79531 18.7266 8.64219 18.7156 8.48906C19.4047 7.98594 20.0062 7.3625 20.4875 6.6625Z" fill="black"/>
</svg>
