<svg width="383" height="77" fill="none" xmlns="http://www.w3.org/2000/svg"><path fill="#fff" d="M0 0h383v77H0z"/><g opacity=".75" clip-path="url(#clip0)" fill="#010101"><path d="M200 38.103c0-5.254 3.577-8.946 8.918-8.946 2.402 0 4.829.694 6.771 2.602l-1.022.892c-1.635-1.536-3.552-2.156-5.749-2.156-4.344 0-7.41 3.024-7.41 7.608 0 4.436 2.981 7.559 7.435 7.559 2.198 0 4.114-.57 5.596-1.71v-4.56h-6.056v-1.289h7.487v6.592c-1.737 1.487-4.241 2.272-7.027 2.272-5.212.008-8.943-3.51-8.943-8.864zm19.071-8.823h10.834v1.29h-9.38v6.889h7.794v1.289h-7.794v6.84h9.915v1.288h-11.371l.002-17.595zm13.73 0h1.431l11.473 15.242h.051V29.28h1.431v17.595h-1.456l-11.448-15.142h-.025v15.142h-1.457V29.281zm17.844 0h10.835v1.29h-9.37v6.889h7.794v1.289h-7.794v6.84h9.915v1.288h-11.371l-.009-17.595zm13.73 0h6.21c4.061 0 5.824 2.231 5.824 5.205 0 3.147-1.917 4.783-4.955 5.163l5.312 7.228h-1.763l-5.159-7.112h-4.012v7.112h-1.457V29.281zm5.699 9.18c3.475 0 4.827-1.71 4.827-3.965 0-2.602-1.703-3.923-4.444-3.923h-4.625v7.889h4.242zm14.648-9.18h1.533l7.001 17.596h-1.533l-1.865-4.733h-8.686l-1.84 4.733h-1.526l6.916-17.595zm4.684 11.599l-3.858-9.913h-.051l-3.859 9.913h7.768zm26.151-11.599h1.455v17.596h-1.455V29.281zm4.351 8.767c0-5.278 3.909-8.896 9.02-8.896 5.008 0 8.969 3.568 8.969 8.896 0 5.329-3.961 8.947-8.969 8.947-5.111.006-9.02-3.637-9.02-8.947zm16.481 0c0-4.51-3.347-7.558-7.453-7.558-4.241 0-7.538 3.122-7.538 7.558 0 4.486 3.297 7.609 7.538 7.609 4.106.006 7.453-3.065 7.453-7.608zm4.233-8.767h1.431l11.474 15.242h.051V29.28h1.431v17.595h-1.457l-11.448-15.142h-.025v15.142h-1.457V29.281zm-28.033 16.357c.038-.076.026-.107-.177-.353-1.139-1.256-2.21-2.451-3.062-3.379a23.814 23.814 0 00-2.949-2.654c-.373-.278-1.297-.914-1.603-1.131-.075-.054-.109-.087-.105-.12a.518.518 0 01.126-.114c.49-.349 1.08-.733 1.61-1.115a24.99 24.99 0 002.921-2.684c1.005-1.083 1.614-1.795 3.047-3.392.213-.243.233-.27.175-.357a4.505 4.505 0 00-1.367-1.326c-.079-.037-.111-.022-.364.172-1.295 1.107-2.528 2.143-3.484 2.97a23.707 23.707 0 00-2.736 2.86c-.288.361-1.218 1.584-1.22 1.586-.053.064-.085.08-.128.051a.994.994 0 01-.068-.082c-.358-.475-.73-1.033-1.124-1.553a24.909 24.909 0 00-2.769-2.836c-1.115-.972-1.85-1.565-3.496-2.953-.251-.206-.279-.227-.368-.17a4.463 4.463 0 00-1.368 1.327c-.038.076-.023.105.177.35 1.142 1.256 2.211 2.454 3.062 3.38a23.91 23.91 0 002.949 2.655c.373.279 1.306.92 1.612 1.136a.24.24 0 01.081.068c.013.023-.032.06-.113.12-.489.347-1.086.727-1.616 1.109a25.009 25.009 0 00-2.923 2.685c-1.003 1.082-1.614 1.794-3.048 3.39-.212.244-.232.271-.172.358a4.46 4.46 0 001.367 1.326c.079.037.109.023.362-.172 1.299-1.1 2.534-2.133 3.494-2.959a23.715 23.715 0 002.737-2.86 97.8 97.8 0 001.19-1.539c.049-.066.087-.103.113-.101.025.002.079.083.123.14.358.475.733 1.033 1.127 1.543a24.482 24.482 0 002.768 2.836c1.118.974 1.85 1.565 3.496 2.955.254.206.281.225.371.167a4.48 4.48 0 001.352-1.334z"/></g><path d="M20 1h128a3 3 0 013 3v53c0 10.493-8.507 19-19 19H4a3 3 0 01-3-3V20C1 9.507 9.507 1 20 1z" stroke="#367EF7" stroke-width="2"/><path d="M20 1h128a3 3 0 013 3v53c0 10.493-8.507 19-19 19H4a3 3 0 01-3-3V20C1 9.507 9.507 1 20 1z" stroke="url(#paint0_linear)" stroke-width="2"/><path d="M44.34 27.824h-2.4L33.268 50h2.208l2.656-7.072h9.92L50.772 50h2.176L44.34 27.824zm-5.568 13.408l4.288-11.296h.064l4.32 11.296h-8.672zM69.4 38.576l7.648-10.752h-2.304l-6.528 9.184-6.688-9.184h-2.496l7.872 10.816L58.744 50h2.336l6.976-9.792L75.224 50h2.496L69.4 38.576zm19.066-10.752h-2.112V50h2.112V27.824zm12.419 11.04c0-2.816.64-5.12 1.92-6.944 1.28-1.824 3.008-2.752 5.152-2.752 2.112 0 3.84.928 5.12 2.752 1.28 1.824 1.952 4.128 1.952 6.944 0 2.848-.672 5.184-1.952 7.008-1.28 1.856-3.008 2.752-5.12 2.752-2.144 0-3.872-.896-5.152-2.752-1.28-1.824-1.92-4.16-1.92-7.008zm16.288 0c0-3.392-.864-6.144-2.528-8.256-1.696-2.112-3.936-3.2-6.688-3.2-2.784 0-5.024 1.088-6.688 3.2-1.696 2.112-2.528 4.864-2.528 8.256 0 3.392.832 6.176 2.528 8.32 1.664 2.176 3.904 3.232 6.688 3.232 2.752 0 4.992-1.056 6.688-3.232 1.664-2.144 2.528-4.928 2.528-8.32z" fill="#367EF7"/><path d="M44.34 27.824h-2.4L33.268 50h2.208l2.656-7.072h9.92L50.772 50h2.176L44.34 27.824zm-5.568 13.408l4.288-11.296h.064l4.32 11.296h-8.672zM69.4 38.576l7.648-10.752h-2.304l-6.528 9.184-6.688-9.184h-2.496l7.872 10.816L58.744 50h2.336l6.976-9.792L75.224 50h2.496L69.4 38.576zm19.066-10.752h-2.112V50h2.112V27.824zm12.419 11.04c0-2.816.64-5.12 1.92-6.944 1.28-1.824 3.008-2.752 5.152-2.752 2.112 0 3.84.928 5.12 2.752 1.28 1.824 1.952 4.128 1.952 6.944 0 2.848-.672 5.184-1.952 7.008-1.28 1.856-3.008 2.752-5.12 2.752-2.144 0-3.872-.896-5.152-2.752-1.28-1.824-1.92-4.16-1.92-7.008zm16.288 0c0-3.392-.864-6.144-2.528-8.256-1.696-2.112-3.936-3.2-6.688-3.2-2.784 0-5.024 1.088-6.688 3.2-1.696 2.112-2.528 4.864-2.528 8.256 0 3.392.832 6.176 2.528 8.32 1.664 2.176 3.904 3.232 6.688 3.232 2.752 0 4.992-1.056 6.688-3.232 1.664-2.144 2.528-4.928 2.528-8.32z" fill="url(#paint1_linear)"/><path d="M177.627 45c2.346 0 4.063-1.292 4.063-3.417 0-1.547-1.071-2.533-2.465-2.89v-.017c1.088-.323 1.836-1.156 1.836-2.38 0-1.853-1.088-3.077-3.57-3.077h-4.097V45h4.233zm-2.771-6.715v-3.876h2.635c1.445 0 2.142.663 2.142 1.887 0 1.105-1.071 1.989-2.295 1.989h-2.482zm0 5.525v-4.369h2.839c1.394 0 2.567.816 2.567 2.21 0 1.394-1.054 2.159-2.567 2.159h-2.839zm9.532 4.437c1.87 0 2.533-.646 3.417-2.873l3.519-8.874h-1.428l-2.346 6.307h-.051l-2.363-6.307h-1.445l2.805 7.14c.255.646.306.901.068 1.479l-.085.204c-.357.85-.799 1.683-2.091 1.683h-.459v1.241h.459z" fill="#000" fill-opacity=".75"/><defs><linearGradient id="paint0_linear" x1="112" y1="-44" x2="76" y2="77" gradientUnits="userSpaceOnUse"><stop stop-color="#00A999"/><stop offset="1" stop-color="#fff" stop-opacity="0"/></linearGradient><linearGradient id="paint1_linear" x1="93.5" y1="-9.5" x2="76" y2="77" gradientUnits="userSpaceOnUse"><stop stop-color="#00A999"/><stop offset="1" stop-color="#fff" stop-opacity="0"/></linearGradient><clipPath id="clip0"><path fill="#fff" transform="translate(200 29)" d="M0 0h155v18H0z"/></clipPath></defs></svg>