<svg width="1067" height="326" fill="none" xmlns="http://www.w3.org/2000/svg"><path d="M306.124 51.005c-33.194.004-63.032 12.346-84.015 33.674l-.017-.157c-5.889 6.79-20.811 18.172-38.084 70.44-6.882 20.822-22.133 54.278-58.182 59.339l.318.276a91.793 91.793 0 01-10.624.639c-1.675 0-3.334-.077-4.982-.214a56.37 56.37 0 01-4.595-.583 3.67 3.67 0 00-.259-.038 57.413 57.413 0 01-4.313-.925l-.39-.096a52.335 52.335 0 01-4.083-1.253c-.15-.052-.298-.1-.449-.155a52.132 52.132 0 01-8.03-3.677c-.126-.073-.253-.149-.381-.222a48.366 48.366 0 01-3.549-2.256c-.091-.059-.174-.127-.267-.191a47.443 47.443 0 01-3.417-2.646 1.605 1.605 0 01-.088-.079 48.39 48.39 0 01-3.278-3.082 46.304 46.304 0 01-2.875-3.281c-.072-.089-.147-.171-.215-.26a46.816 46.816 0 01-2.459-3.43c-.095-.148-.194-.287-.29-.435a45.668 45.668 0 01-2.085-3.619c-.095-.182-.195-.366-.285-.556a47.285 47.285 0 01-1.735-3.834c-.085-.207-.163-.417-.246-.624a51.14 51.14 0 01-1.385-4.093 16.22 16.22 0 01-.175-.636 52.48 52.48 0 01-1.03-4.399c-.036-.184-.064-.376-.096-.565a56.343 56.343 0 01-.652-4.766c-.011-.127-.016-.259-.028-.387a62.591 62.591 0 01-.23-5.235c.003-32.425 23.95-52.792 51.878-52.795 25.291.704 46.472 16.489 51.136 43.291 0 0 1.867-5.812 4.511-13.591 5.36-15.763 15.341-37.647 29.158-55.39a169.951 169.951 0 00-5.674-5.35l.028-.041c-.485-.427-.99-.832-1.484-1.251-21.694-19.14-43.856-27.53-78.063-27.526-1.989 0-3.967.044-5.933.133-5.802.258-11.579.91-17.292 1.95a120.36 120.36 0 00-21.614 6.054 113.552 113.552 0 00-10.064 4.436 110.4 110.4 0 00-9.486 5.323A107.918 107.918 0 0029.919 85.91a106.018 106.018 0 00-10.23 12.543C7.29 116.278.058 138.434.056 163.687c0 1.897.055 3.765.135 5.627.028.568.064 1.124.095 1.689.075 1.329.172 2.645.29 3.95a113.468 113.468 0 00.696 6.074c.052.36.091.729.147 1.089.263 1.764.567 3.508.911 5.231.087.444.19.884.286 1.333.27 1.292.562 2.574.874 3.845a70.1 70.1 0 00.423 1.652 98.877 98.877 0 001.03 3.653c.14.461.266.926.41 1.381a111.014 111.014 0 001.635 4.818c.086.241.182.469.273.706a104.224 104.224 0 001.592 4.005c.206.492.425.977.64 1.465a96.55 96.55 0 001.488 3.24c.225.472.45.946.684 1.413a107.488 107.488 0 002.041 3.895c.091.164.175.33.266.494a107.01 107.01 0 002.506 4.224c.252.403.514.799.772 1.201.641.995 1.297 1.98 1.97 2.955.306.44.607.878.919 1.313a96.384 96.384 0 002.227 2.99c.24.312.474.631.716.943a110.77 110.77 0 003.088 3.726c.242.276.493.545.735.821.84.944 1.694 1.873 2.562 2.789.363.381.733.757 1.102 1.133.82.832 1.653 1.651 2.5 2.457.35.332.691.663 1.042.991a108.17 108.17 0 003.625 3.218c.07.059.146.116.218.175a103.46 103.46 0 003.573 2.867c.4.303.801.604 1.205.901.932.698 1.876 1.38 2.834 2.047.425.299.85.599 1.285.891 1.105.75 2.228 1.481 3.37 2.194.253.155.496.324.751.477 1.394.852 2.805 1.675 4.233 2.468.386.211.776.417 1.166.624 1.555.841 3.13 1.645 4.723 2.413 1.106.528 2.22 1.04 3.342 1.536.414.184.82.371 1.237.551 1.525.652 3.066 1.274 4.623 1.868.274.105.557.198.832.301.994.369 1.993.736 3 1.08l.532.157c2.591.869 5.225 1.65 7.903 2.345l.68.203c.367.093.74.152 1.106.243 1.838.449 3.694.858 5.567 1.228.52.105 1.037.221 1.564.317 2.331.433 4.69.795 7.073 1.099.534.068 1.075.116 1.612.18 1.934.218 3.879.4 5.842.535.687.048 1.372.1 2.06.137 2.462.136 4.941.227 7.444.227h.008c2.698 0 5.372-.08 8.022-.24.916-.053 1.807-.165 2.718-.238 1.723-.139 3.449-.26 5.148-.465 1.103-.133 2.181-.329 3.275-.484 1.48-.217 2.969-.403 4.429-.668 1.162-.212 2.296-.49 3.446-.73 1.357-.285 2.725-.545 4.062-.873 1.194-.292 2.356-.648 3.537-.972 1.258-.349 2.527-.672 3.765-1.057 1.206-.377 2.371-.812 3.557-1.222 1.178-.409 2.368-.792 3.524-1.232 1.202-.46 2.371-.982 3.554-1.477 1.094-.46 2.204-.898 3.283-1.391 1.189-.542 2.343-1.144 3.509-1.728 1.027-.513 2.069-1 3.076-1.54 1.162-.625 2.288-1.307 3.426-1.97.962-.565 1.937-1.106 2.881-1.694 1.133-.709 2.219-1.465 3.322-2.213.904-.609 1.819-1.197 2.698-1.832 1.087-.784 2.132-1.618 3.188-2.441.843-.657 1.703-1.296 2.526-1.979 1.035-.854 2.026-1.759 3.028-2.658.789-.706 1.592-1.395 2.364-2.128.975-.928 1.907-1.902 2.849-2.866.736-.756 1.485-1.493 2.197-2.27.916-.996 1.782-2.036 2.658-3.068.681-.802 1.377-1.593 2.034-2.419.843-1.057 1.64-2.153 2.443-3.245.306-.42.633-.821.935-1.245 20.727 29.112 55.668 46.329 95.515 46.325 64.062-.007 115.471-44.49 115.477-111.413.01-67.335-51.389-112.64-115.842-112.634zm-2.593 164.304c-27.9.003-51.811-19.572-51.807-51.647.003-32.494 23.919-52.909 51.818-52.912 27.9-.003 51.813 20.407 51.807 52.901-.003 32.074-23.919 51.655-51.818 51.658z" fill="#C82986"/><path d="M542.59 177.26h-16.87l8.33-22.54h.14l8.4 22.54zM556.17 197l-18.69-48.51h-6.51L512.14 197h6.3l5.46-14.91h20.44l5.6 14.91h6.23zm34.548-15.05c0 6.51-4.06 10.85-10.71 10.85-6.65 0-10.71-4.34-10.71-10.85v-33.46h-6.02v33.88c0 9.73 7.63 15.54 16.73 15.54 9.1 0 16.73-5.81 16.73-15.54v-33.88h-6.02v33.46zm52.198-.98c-1.89 6.93-5.95 11.83-13.09 11.83-9.66 0-14.35-10.08-14.35-20.16s4.69-20.02 14.35-20.02c6.93 0 10.71 4.55 12.74 11.13l6.16-1.12c-2.73-9.1-8.96-15.05-18.83-15.05-13.02 0-20.44 11.27-20.44 25.06s7.35 25.27 20.37 25.27c10.22 0 16.66-6.44 19.18-16.1l-6.09-.84zm35.397 16.94c13.02 0 20.65-11.48 20.65-25.27s-7.63-25.06-20.65-25.06-20.65 11.27-20.65 25.06 7.63 25.27 20.65 25.27zm0-5.11c-9.66 0-14.63-10.08-14.63-20.16s4.97-20.02 14.63-20.02 14.63 9.94 14.63 20.02-4.97 20.16-14.63 20.16zm39.574-22.26v-17.15h10.92c6.51 0 9.8 2.38 9.8 8.12 0 7.07-4.97 9.03-10.15 9.03h-10.57zm29.54 26.46l-12.53-22.61c6.65-1.75 9.87-7.07 9.87-13.09 0-6.86-4.27-12.81-14.98-12.81h-17.92V197h6.02v-21.7h10.78l11.62 21.7h7.14zm60.546-36.33c-1.89-6.02-6.37-13.09-16.87-13.09-9.52 0-15.82 5.74-15.82 13.79 0 17.5 28.14 9.31 28.14 22.89 0 4.83-3.85 8.54-10.22 8.54-7.07 0-11.41-4.55-13.23-10.43l-6.44 1.61c3.01 7.77 8.47 13.93 19.18 13.93 10.15 0 16.45-5.6 16.45-14.14 0-18.34-28.07-10.08-28.07-23.24 0-4.97 4.27-7.91 9.52-7.91 6.09 0 9.94 3.99 11.41 8.96l5.95-.91zM833.83 197v-43.61h14.49v-4.9h-35v4.9h14.49V197h6.02zm43.694-19.74h-16.87l8.33-22.54h.14l8.4 22.54zm13.58 19.74l-18.69-48.51h-6.51L847.074 197h6.3l5.46-14.91h20.44l5.6 14.91h6.23zm15.386-26.46v-17.15h10.92c6.51 0 9.8 2.38 9.8 8.12 0 7.07-4.97 9.03-10.15 9.03h-10.57zM936.03 197l-12.53-22.61c6.65-1.75 9.87-7.07 9.87-13.09 0-6.86-4.27-12.81-14.98-12.81h-17.92V197h6.02v-21.7h10.78l11.62 21.7h7.14zm25.878 0v-43.61h14.49v-4.9h-35v4.9h14.49V197h6.02zm55.512 0v-4.9h-24.359v-17.92h19.459v-4.9h-19.459v-15.89h23.659v-4.9h-29.679V197h30.379zm17.35-26.46v-17.15h10.92c6.51 0 9.8 2.38 9.8 8.12 0 7.07-4.97 9.03-10.15 9.03h-10.57zm29.54 26.46l-12.53-22.61c6.65-1.75 9.87-7.07 9.87-13.09 0-6.86-4.27-12.81-14.98-12.81h-17.92V197h6.02v-21.7h10.78l11.62 21.7h7.14z" fill="#000"/></svg>