<svg width="24" height="24" viewBox="0 0 24 24" xmlns="http://www.w3.org/2000/svg">
<path d="M19.1164 4H4.88309C4.39571 4 4 4.39492 4 4.88309V19.1164C4 19.6046 4.39571 20 4.88309 20H12.5459V13.8039H10.4609V11.3888H12.5459V9.60785C12.5459 7.54159 13.8075 6.41586 15.6512 6.41586C16.5351 6.41586 17.293 6.48199 17.5141 6.5107V8.67049L16.2353 8.67101C15.2328 8.67101 15.0395 9.1476 15.0395 9.84654V11.388H17.4311L17.1184 13.8028H15.0392V19.9992H19.1161C19.604 19.9992 20 19.6032 20 19.1164V4.88257C19.9997 4.39492 19.6043 4 19.1164 4Z" fill="black"/>
</svg>
