<svg width="24" height="24" viewBox="0 0 24 24" xmlns="http://www.w3.org/2000/svg">
<path d="M7.63542 8.48363H4.19792V18.8065H7.63542V8.48363ZM7.85417 5.29613C7.84375 4.28571 7.11458 3.51488 5.9375 3.51488C4.77083 3.51488 4 4.28571 4 5.29613C4 6.28571 4.73958 7.07738 5.89583 7.07738H5.91667C7.11458 7.07738 7.86458 6.28571 7.85417 5.29613ZM12.9583 9.95087V8.48363H9.53125C9.53125 8.48363 9.57292 9.45238 9.53125 18.8065H12.9583V13.0461C12.9583 12.7336 12.9896 12.4315 13.0729 12.2024C13.3229 11.5878 13.8854 10.9524 14.8333 10.9524C16.0729 10.9524 16.5729 11.9003 16.5729 13.2857V18.8065H20V12.8899C20 9.72321 18.3125 8.24404 16.0521 8.24404C14.2263 8.24404 13.4105 9.24396 12.9583 9.95087Z" fill="black"/>
</svg>
