<svg width="24" height="24" viewBox="0 0 24 24" xmlns="http://www.w3.org/2000/svg">
<path d="M16.2857 12.1429C16.2857 11.8973 16.1629 11.6629 15.9509 11.5402L10.2366 7.96875C10.0134 7.82366 9.73438 7.82366 9.51116 7.94643C9.28795 8.0692 9.14286 8.31473 9.14286 8.57143V15.7143C9.14286 15.971 9.28795 16.2165 9.51116 16.3393C9.62277 16.3951 9.73437 16.4286 9.85714 16.4286C9.99107 16.4286 10.125 16.3951 10.2366 16.317L15.9509 12.7455C16.1629 12.6228 16.2857 12.3884 16.2857 12.1429ZM22 12.1429C22 13.7388 22 15.4353 21.6429 16.9866C21.4085 18.0804 20.5379 18.8839 19.4888 19.0067C17.0112 19.2857 14.5 19.2857 12 19.2857C9.5 19.2857 6.98884 19.2857 4.51116 19.0067C3.46205 18.8839 2.59152 18.0804 2.34598 16.9866C2 15.4353 2 13.7388 2 12.1429C2 10.5469 2 8.85045 2.35714 7.29911C2.60268 6.20536 3.46205 5.40179 4.51116 5.27902C6.98884 5 9.5 5 12 5C14.5 5 17.0112 5 19.4888 5.27902C20.5379 5.40179 21.4085 6.20536 21.654 7.29911C22 8.85045 22 10.5469 22 12.1429Z" fill="black"/>
</svg>
