<svg width="383" height="77" viewBox="0 0 383 77" fill="none" xmlns="http://www.w3.org/2000/svg">
<rect width="383" height="77" fill="white"/>
<g opacity="0.75" clip-path="url(#clip0)">
<path d="M200 38.1033C200 32.8495 203.577 29.157 208.918 29.157C211.32 29.157 213.747 29.8508 215.689 31.7591L214.667 32.6512C213.032 31.1147 211.115 30.4952 208.918 30.4952C204.574 30.4952 201.508 33.5186 201.508 38.1033C201.508 42.5392 204.489 45.6618 208.943 45.6618C211.141 45.6618 213.057 45.0918 214.539 43.9518V39.3919H208.483V38.1033H215.97V44.6953C214.233 46.1822 211.729 46.967 208.943 46.967C203.731 46.9752 200 43.4562 200 38.1033Z" fill="#010101"/>
<path d="M219.071 29.2809H229.905V30.5695H220.525V37.4589H228.319V38.7476H220.525V45.5874H230.44V46.8761H219.069L219.071 29.2809Z" fill="#010101"/>
<path d="M232.801 29.2809H234.232L245.705 44.5218H245.756V29.2809H247.187V46.8761H245.731L234.283 31.7343H234.258V46.8761H232.801V29.2809Z" fill="#010101"/>
<path d="M250.645 29.2809H261.48V30.5695H252.11V37.4589H259.904V38.7476H252.11V45.5874H262.025V46.8761H250.654L250.645 29.2809Z" fill="#010101"/>
<path d="M264.375 29.2809H270.585C274.646 29.2809 276.409 31.5112 276.409 34.4851C276.409 37.6324 274.492 39.268 271.454 39.648L276.766 46.8761H275.003L269.844 39.7637H265.832V46.8761H264.375V29.2809ZM270.074 38.4605C273.549 38.4605 274.901 36.7506 274.901 34.4954C274.901 31.8933 273.198 30.5716 270.457 30.5716H265.832V38.4605H270.074Z" fill="#010101"/>
<path d="M284.722 29.2809H286.255L293.256 46.8761H291.723L289.858 42.1427H281.172L279.332 46.8761H277.806L284.722 29.2809ZM289.406 40.8788L285.548 30.966H285.497L281.638 40.8788H289.406Z" fill="#010101"/>
<path d="M315.557 29.2809H317.012V46.8761H315.557V29.2809Z" fill="#010101"/>
<path d="M319.908 38.0475C319.908 32.7689 323.817 29.1508 328.928 29.1508C333.936 29.1508 337.897 32.7194 337.897 38.0475C337.897 43.3756 333.936 46.9938 328.928 46.9938C323.817 47 319.908 43.357 319.908 38.0475ZM336.389 38.0475C336.389 33.5372 333.042 30.489 328.936 30.489C324.695 30.489 321.398 33.6115 321.398 38.0475C321.398 42.533 324.695 45.6556 328.936 45.6556C333.042 45.6618 336.389 42.5909 336.389 38.0475Z" fill="#010101"/>
<path d="M340.622 29.2809H342.053L353.527 44.5218H353.578V29.2809H355.009V46.8761H353.552L342.104 31.7343H342.079V46.8761H340.622V29.2809Z" fill="#010101"/>
<path d="M312.589 45.637C312.627 45.5606 312.615 45.5296 312.412 45.2838C311.273 44.0282 310.202 42.8325 309.35 41.9052C308.445 40.9426 307.459 40.0549 306.401 39.2515C306.028 38.9727 305.104 38.3366 304.798 38.1198C304.723 38.0661 304.689 38.033 304.693 38C304.728 37.9557 304.771 37.9173 304.819 37.8864C305.309 37.5374 305.899 37.1533 306.429 36.7712C307.475 35.953 308.451 35.0552 309.35 34.0865C310.355 33.0044 310.964 32.2919 312.397 30.6955C312.61 30.4518 312.63 30.425 312.572 30.3382C312.219 29.8069 311.753 29.3548 311.205 29.0124C311.126 28.9752 311.094 28.9897 310.841 29.1838C309.546 30.2907 308.313 31.3274 307.357 32.1535C306.365 33.0314 305.449 33.9881 304.621 35.0138C304.333 35.3752 303.403 36.5977 303.401 36.5998C303.348 36.6638 303.316 36.6804 303.273 36.6514C303.249 36.6251 303.226 36.5975 303.205 36.5688C302.847 36.0939 302.475 35.5363 302.081 35.0158C301.237 34.0009 300.311 33.0527 299.312 32.1804C298.197 31.2077 297.462 30.615 295.816 29.2272C295.565 29.0207 295.537 29 295.448 29.0578C294.899 29.3991 294.432 29.8514 294.08 30.3837C294.042 30.4601 294.057 30.489 294.257 30.7347C295.399 31.9904 296.468 33.1882 297.319 34.1134C298.224 35.0767 299.211 35.965 300.268 36.7692C300.641 37.048 301.574 37.6882 301.88 37.905C301.912 37.9218 301.94 37.945 301.961 37.9732C301.974 37.9959 301.929 38.033 301.848 38.0929C301.359 38.4399 300.762 38.8199 300.232 39.2019C299.186 40.0201 298.208 40.9179 297.309 41.8866C296.306 42.9688 295.695 43.6813 294.261 45.2777C294.049 45.5213 294.029 45.5482 294.089 45.6349C294.441 46.1672 294.907 46.6195 295.456 46.9608C295.535 46.9979 295.565 46.9835 295.818 46.7893C297.117 45.6886 298.352 44.656 299.312 43.83C300.305 42.9521 301.22 41.9954 302.049 40.9697C302.338 40.6083 303.015 39.7306 303.239 39.4312C303.288 39.3651 303.326 39.3279 303.352 39.33C303.377 39.332 303.431 39.4126 303.475 39.4704C303.833 39.9454 304.208 40.503 304.602 41.0131C305.444 42.0291 306.37 42.9773 307.37 43.8486C308.488 44.8233 309.22 45.4139 310.866 46.8038C311.12 47.0103 311.147 47.0289 311.237 46.9711C311.781 46.625 312.242 46.1701 312.589 45.637V45.637Z" fill="#010101"/>
</g>
<path d="M20 1H148C149.657 1 151 2.34315 151 4V57C151 67.4934 142.493 76 132 76H4C2.34315 76 1 74.6569 1 73V20C1 9.50659 9.50659 1 20 1Z" stroke="#367EF7" stroke-width="2"/>
<path d="M20 1H148C149.657 1 151 2.34315 151 4V57C151 67.4934 142.493 76 132 76H4C2.34315 76 1 74.6569 1 73V20C1 9.50659 9.50659 1 20 1Z" stroke="url(#paint0_linear)" stroke-width="2"/>
<path d="M44.3398 27.824H41.9398L33.2678 50H35.4758L38.1318 42.928H48.0518L50.7718 50H52.9478L44.3398 27.824ZM38.7718 41.232L43.0598 29.936H43.1238L47.4438 41.232H38.7718ZM69.4003 38.576L77.0483 27.824H74.7443L68.2163 37.008L61.5283 27.824H59.0323L66.9043 38.64L58.7443 50H61.0803L68.0563 40.208L75.2243 50H77.7203L69.4003 38.576ZM88.4658 27.824H86.3538V50H88.4658V27.824ZM100.885 38.864C100.885 36.048 101.525 33.744 102.805 31.92C104.085 30.096 105.813 29.168 107.957 29.168C110.069 29.168 111.797 30.096 113.077 31.92C114.357 33.744 115.029 36.048 115.029 38.864C115.029 41.712 114.357 44.048 113.077 45.872C111.797 47.728 110.069 48.624 107.957 48.624C105.813 48.624 104.085 47.728 102.805 45.872C101.525 44.048 100.885 41.712 100.885 38.864ZM117.173 38.864C117.173 35.472 116.309 32.72 114.645 30.608C112.949 28.496 110.709 27.408 107.957 27.408C105.173 27.408 102.933 28.496 101.269 30.608C99.5727 32.72 98.7407 35.472 98.7407 38.864C98.7407 42.256 99.5727 45.04 101.269 47.184C102.933 49.36 105.173 50.416 107.957 50.416C110.709 50.416 112.949 49.36 114.645 47.184C116.309 45.04 117.173 42.256 117.173 38.864Z" fill="#367EF7"/>
<path d="M44.3398 27.824H41.9398L33.2678 50H35.4758L38.1318 42.928H48.0518L50.7718 50H52.9478L44.3398 27.824ZM38.7718 41.232L43.0598 29.936H43.1238L47.4438 41.232H38.7718ZM69.4003 38.576L77.0483 27.824H74.7443L68.2163 37.008L61.5283 27.824H59.0323L66.9043 38.64L58.7443 50H61.0803L68.0563 40.208L75.2243 50H77.7203L69.4003 38.576ZM88.4658 27.824H86.3538V50H88.4658V27.824ZM100.885 38.864C100.885 36.048 101.525 33.744 102.805 31.92C104.085 30.096 105.813 29.168 107.957 29.168C110.069 29.168 111.797 30.096 113.077 31.92C114.357 33.744 115.029 36.048 115.029 38.864C115.029 41.712 114.357 44.048 113.077 45.872C111.797 47.728 110.069 48.624 107.957 48.624C105.813 48.624 104.085 47.728 102.805 45.872C101.525 44.048 100.885 41.712 100.885 38.864ZM117.173 38.864C117.173 35.472 116.309 32.72 114.645 30.608C112.949 28.496 110.709 27.408 107.957 27.408C105.173 27.408 102.933 28.496 101.269 30.608C99.5727 32.72 98.7407 35.472 98.7407 38.864C98.7407 42.256 99.5727 45.04 101.269 47.184C102.933 49.36 105.173 50.416 107.957 50.416C110.709 50.416 112.949 49.36 114.645 47.184C116.309 45.04 117.173 42.256 117.173 38.864Z" fill="url(#paint1_linear)"/>
<path d="M177.627 45C179.973 45 181.69 43.708 181.69 41.583C181.69 40.036 180.619 39.05 179.225 38.693V38.676C180.313 38.353 181.061 37.52 181.061 36.296C181.061 34.443 179.973 33.219 177.491 33.219H173.394V45H177.627ZM174.856 38.285V34.409H177.491C178.936 34.409 179.633 35.072 179.633 36.296C179.633 37.401 178.562 38.285 177.338 38.285H174.856ZM174.856 43.81V39.441H177.695C179.089 39.441 180.262 40.257 180.262 41.651C180.262 43.045 179.208 43.81 177.695 43.81H174.856ZM184.388 48.247C186.258 48.247 186.921 47.601 187.805 45.374L191.324 36.5H189.896L187.55 42.807H187.499L185.136 36.5H183.691L186.496 43.64C186.751 44.286 186.802 44.541 186.564 45.119L186.479 45.323C186.122 46.173 185.68 47.006 184.388 47.006H183.929V48.247H184.388Z" fill="black" fill-opacity="0.75"/>
<defs>
<linearGradient id="paint0_linear" x1="112" y1="-44" x2="76" y2="77" gradientUnits="userSpaceOnUse">
<stop stop-color="#00A999"/>
<stop offset="1" stop-color="white" stop-opacity="0"/>
</linearGradient>
<linearGradient id="paint1_linear" x1="93.5" y1="-9.5" x2="76" y2="77" gradientUnits="userSpaceOnUse">
<stop stop-color="#00A999"/>
<stop offset="1" stop-color="white" stop-opacity="0"/>
</linearGradient>
<clipPath id="clip0">
<rect width="155" height="18" fill="white" transform="translate(200 29)"/>
</clipPath>
</defs>
</svg>
