<svg width="1067" height="326" viewBox="0 0 1067 326" fill="none" xmlns="http://www.w3.org/2000/svg">
<path d="M306.124 51.0052C272.93 51.0086 243.092 63.3511 222.109 84.6793L222.092 84.5221C216.203 91.3125 201.281 102.694 184.008 154.962C177.126 175.784 161.875 209.24 125.826 214.301L126.144 214.577C122.618 214.995 119.07 215.209 115.52 215.216C113.845 215.216 112.186 215.139 110.538 215.002C108.991 214.873 107.459 214.672 105.943 214.419C105.858 214.403 105.771 214.391 105.684 214.381C104.228 214.127 102.787 213.817 101.371 213.456C101.24 213.424 101.112 213.392 100.981 213.36C99.5963 212.996 98.2352 212.578 96.898 212.107C96.7475 212.055 96.6004 212.007 96.449 211.952C95.1339 211.48 93.8384 210.956 92.5656 210.38C92.4177 210.315 92.2707 210.248 92.1247 210.179C90.8629 209.592 89.6279 208.957 88.4197 208.275C88.2926 208.202 88.166 208.126 88.038 208.053C86.8242 207.349 85.6346 206.602 84.4892 205.797C84.3979 205.738 84.3147 205.67 84.2225 205.606C83.0453 204.774 81.9031 203.897 80.8048 202.96C80.7746 202.935 80.7453 202.908 80.7172 202.881C79.5845 201.911 78.4975 200.89 77.4595 199.82C77.452 199.814 77.4452 199.807 77.4393 199.799C76.4329 198.757 75.4739 197.658 74.5639 196.518C74.4923 196.429 74.4168 196.347 74.3494 196.258C73.478 195.157 72.6659 194.013 71.8904 192.828C71.7951 192.68 71.6962 192.541 71.5995 192.393C70.8555 191.229 70.1608 190.022 69.5154 188.774C69.4201 188.592 69.3203 188.408 69.2296 188.218C68.6 186.978 68.0217 185.7 67.4948 184.384C67.4102 184.177 67.3316 183.967 67.2487 183.76C66.7349 182.431 66.2733 181.067 65.864 179.667C65.8003 179.455 65.7445 179.244 65.6892 179.031C65.2827 177.58 64.9389 176.113 64.6586 174.632C64.6231 174.448 64.5952 174.256 64.5633 174.067C64.2783 172.489 64.0608 170.899 63.9113 169.301C63.8995 169.174 63.8949 169.042 63.8831 168.914C63.7405 167.209 63.6525 165.464 63.6528 163.679C63.6562 131.254 87.6039 110.887 115.531 110.884C140.822 111.588 162.003 127.373 166.667 154.175C166.667 154.175 168.534 148.363 171.178 140.584C176.538 124.821 186.519 102.937 200.336 85.1946C198.441 83.3167 196.552 81.5529 194.662 79.8437L194.69 79.8028C194.205 79.3765 193.7 78.9708 193.206 78.5515C171.512 59.4115 149.35 51.0221 115.143 51.026C113.154 51.026 111.176 51.0703 109.21 51.1587C103.408 51.4165 97.6313 52.0683 91.9183 53.1094C84.5404 54.4495 77.304 56.4761 70.3036 59.1627C66.8584 60.4874 63.5039 61.9662 60.2399 63.5993C56.9783 65.2245 53.8164 66.9988 50.754 68.9221C43.1277 73.6944 36.1284 79.4013 29.919 85.9097C26.194 89.824 22.7739 94.0172 19.6884 98.4526C7.29142 116.278 0.0599101 138.434 0.057373 163.687C0.057373 165.584 0.112343 167.452 0.19212 169.314C0.22031 169.882 0.255547 170.438 0.287119 171.003C0.362292 172.332 0.458982 173.648 0.577191 174.953C0.62906 175.545 0.680647 176.133 0.744074 176.722C0.894419 178.171 1.07089 179.606 1.27348 181.027C1.32478 181.387 1.36425 181.756 1.42006 182.116C1.68317 183.88 1.98696 185.624 2.33144 187.347C2.41826 187.791 2.52172 188.231 2.617 188.68C2.88762 189.972 3.17891 191.254 3.49088 192.525C3.62619 193.076 3.76517 193.63 3.91373 194.177C4.23622 195.41 4.57957 196.628 4.94378 197.83C5.08473 198.291 5.21045 198.756 5.35366 199.211C5.86755 200.836 6.40795 202.449 6.98866 204.029C7.07548 204.27 7.17133 204.498 7.2621 204.735C7.76782 206.088 8.29835 207.423 8.85369 208.74C9.06032 209.232 9.27935 209.717 9.49416 210.205C9.97113 211.296 10.467 212.377 10.9817 213.445C11.2072 213.917 11.4328 214.391 11.6659 214.858C12.3225 216.175 13.003 217.474 13.7074 218.753C13.7982 218.917 13.8819 219.083 13.9735 219.247C14.7772 220.681 15.6167 222.085 16.4793 223.471C16.7305 223.874 16.9932 224.27 17.2511 224.672C17.892 225.667 18.5483 226.652 19.2202 227.627C19.5269 228.067 19.8285 228.505 20.14 228.94C20.8635 229.952 21.6059 230.948 22.367 231.93C22.6063 232.242 22.8409 232.561 23.0833 232.873C24.0857 234.138 25.1148 235.38 26.1706 236.599C26.4133 236.875 26.6642 237.144 26.9064 237.42C27.7461 238.364 28.5999 239.293 29.468 240.209C29.8308 240.59 30.2009 240.966 30.5702 241.342C31.3903 242.174 32.2233 242.993 33.0692 243.799C33.4193 244.131 33.761 244.462 34.1122 244.79C35.2962 245.886 36.5027 246.964 37.7372 248.008C37.8076 248.067 37.8832 248.124 37.9551 248.183C39.1253 249.165 40.3162 250.121 41.5278 251.05C41.9276 251.353 42.3294 251.654 42.7332 251.951C43.6646 252.649 44.6091 253.331 45.5668 253.998C45.9922 254.297 46.4179 254.597 46.852 254.889C47.957 255.639 49.0802 256.37 50.2215 257.083C50.4752 257.238 50.7185 257.407 50.9733 257.56C52.3669 258.412 53.7782 259.235 55.2063 260.028C55.5925 260.239 55.9818 260.445 56.372 260.652C57.9272 261.493 59.5018 262.297 61.0946 263.065C62.2012 263.593 63.3154 264.105 64.4367 264.601C64.8511 264.785 65.2571 264.972 65.6743 265.152C67.1986 265.804 68.7396 266.426 70.2974 267.02C70.5714 267.125 70.8539 267.218 71.129 267.321C72.1232 267.69 73.122 268.057 74.1289 268.401L74.6614 268.558C77.2521 269.427 79.8861 270.208 82.5636 270.903L83.2441 271.106C83.6105 271.199 83.9841 271.258 84.35 271.349C86.1879 271.798 88.0435 272.207 89.9166 272.577C90.4375 272.682 90.9545 272.798 91.4808 272.894C93.8124 273.327 96.171 273.689 98.5542 273.993C99.0878 274.061 99.6291 274.109 100.166 274.173C102.1 274.391 104.045 274.573 106.008 274.708C106.695 274.756 107.38 274.808 108.068 274.845C110.53 274.981 113.009 275.072 115.512 275.072H115.52C118.218 275.072 120.892 274.992 123.542 274.832C124.458 274.779 125.349 274.667 126.26 274.594C127.983 274.455 129.709 274.334 131.408 274.129C132.511 273.996 133.589 273.8 134.683 273.645C136.163 273.428 137.652 273.242 139.112 272.977C140.274 272.765 141.408 272.487 142.558 272.247C143.915 271.962 145.283 271.702 146.62 271.374C147.814 271.082 148.976 270.726 150.157 270.402C151.415 270.053 152.684 269.73 153.922 269.345C155.128 268.968 156.293 268.533 157.479 268.123C158.657 267.714 159.847 267.331 161.003 266.891C162.205 266.431 163.374 265.909 164.557 265.414C165.651 264.954 166.761 264.516 167.84 264.023C169.029 263.481 170.183 262.879 171.349 262.295C172.376 261.782 173.418 261.295 174.425 260.755C175.587 260.13 176.713 259.448 177.851 258.785C178.813 258.22 179.788 257.679 180.732 257.091C181.865 256.382 182.951 255.626 184.054 254.878C184.958 254.269 185.873 253.681 186.752 253.046C187.839 252.262 188.884 251.428 189.94 250.605C190.783 249.948 191.643 249.309 192.466 248.626C193.501 247.772 194.492 246.867 195.494 245.968C196.283 245.262 197.086 244.573 197.858 243.84C198.833 242.912 199.765 241.938 200.707 240.974C201.443 240.218 202.192 239.481 202.904 238.704C203.82 237.708 204.686 236.668 205.562 235.636C206.243 234.834 206.939 234.043 207.596 233.217C208.439 232.16 209.236 231.064 210.039 229.972C210.345 229.552 210.672 229.151 210.974 228.727C231.701 257.839 266.642 275.056 306.489 275.052C370.551 275.045 421.96 230.562 421.966 163.639C421.976 96.3042 370.577 50.9995 306.124 51.0052ZM303.531 215.309C275.631 215.312 251.72 195.737 251.724 163.662C251.727 131.168 275.643 110.753 303.542 110.75C331.442 110.747 355.355 131.157 355.349 163.651C355.346 195.725 331.43 215.306 303.531 215.309Z" fill="#C82986"/>
<path d="M542.59 177.26H525.72L534.05 154.72H534.19L542.59 177.26ZM556.17 197L537.48 148.49H530.97L512.14 197H518.44L523.9 182.09H544.34L549.94 197H556.17ZM590.718 181.95C590.718 188.46 586.658 192.8 580.008 192.8C573.358 192.8 569.298 188.46 569.298 181.95V148.49H563.278V182.37C563.278 192.1 570.908 197.91 580.008 197.91C589.108 197.91 596.738 192.1 596.738 182.37V148.49H590.718V181.95ZM642.916 180.97C641.026 187.9 636.966 192.8 629.826 192.8C620.166 192.8 615.476 182.72 615.476 172.64C615.476 162.56 620.166 152.62 629.826 152.62C636.756 152.62 640.536 157.17 642.566 163.75L648.726 162.63C645.996 153.53 639.766 147.58 629.896 147.58C616.876 147.58 609.456 158.85 609.456 172.64C609.456 186.43 616.806 197.91 629.826 197.91C640.046 197.91 646.486 191.47 649.006 181.81L642.916 180.97ZM678.313 197.91C691.333 197.91 698.963 186.43 698.963 172.64C698.963 158.85 691.333 147.58 678.313 147.58C665.293 147.58 657.663 158.85 657.663 172.64C657.663 186.43 665.293 197.91 678.313 197.91ZM678.313 192.8C668.653 192.8 663.683 182.72 663.683 172.64C663.683 162.56 668.653 152.62 678.313 152.62C687.973 152.62 692.943 162.56 692.943 172.64C692.943 182.72 687.973 192.8 678.313 192.8ZM717.887 170.54V153.39H728.807C735.317 153.39 738.607 155.77 738.607 161.51C738.607 168.58 733.637 170.54 728.457 170.54H717.887ZM747.427 197L734.897 174.39C741.547 172.64 744.767 167.32 744.767 161.3C744.767 154.44 740.497 148.49 729.787 148.49H711.867V197H717.887V175.3H728.667L740.287 197H747.427ZM807.973 160.67C806.083 154.65 801.603 147.58 791.103 147.58C781.583 147.58 775.283 153.32 775.283 161.37C775.283 178.87 803.423 170.68 803.423 184.26C803.423 189.09 799.573 192.8 793.203 192.8C786.133 192.8 781.793 188.25 779.973 182.37L773.533 183.98C776.543 191.75 782.003 197.91 792.713 197.91C802.863 197.91 809.163 192.31 809.163 183.77C809.163 165.43 781.093 173.69 781.093 160.53C781.093 155.56 785.363 152.62 790.613 152.62C796.703 152.62 800.553 156.61 802.023 161.58L807.973 160.67ZM833.83 197V153.39H848.32V148.49H813.32V153.39H827.81V197H833.83ZM877.524 177.26H860.654L868.984 154.72H869.124L877.524 177.26ZM891.104 197L872.414 148.49H865.904L847.074 197H853.374L858.834 182.09H879.274L884.874 197H891.104ZM906.49 170.54V153.39H917.41C923.92 153.39 927.21 155.77 927.21 161.51C927.21 168.58 922.24 170.54 917.06 170.54H906.49ZM936.03 197L923.5 174.39C930.15 172.64 933.37 167.32 933.37 161.3C933.37 154.44 929.1 148.49 918.39 148.49H900.47V197H906.49V175.3H917.27L928.89 197H936.03ZM961.908 197V153.39H976.398V148.49H941.398V153.39H955.888V197H961.908ZM1017.42 197V192.1H993.061V174.18H1012.52V169.28H993.061V153.39H1016.72V148.49H987.041V197H1017.42ZM1034.77 170.54V153.39H1045.69C1052.2 153.39 1055.49 155.77 1055.49 161.51C1055.49 168.58 1050.52 170.54 1045.34 170.54H1034.77ZM1064.31 197L1051.78 174.39C1058.43 172.64 1061.65 167.32 1061.65 161.3C1061.65 154.44 1057.38 148.49 1046.67 148.49H1028.75V197H1034.77V175.3H1045.55L1057.17 197H1064.31Z" fill="black"/>
</svg>
