<svg xmlns="http://www.w3.org/2000/svg" xmlns:xlink="http://www.w3.org/1999/xlink" width="24" height="24" viewBox="0 0 24 24">
  <path id="info-a" d="M12,2 C6.47754032,2 2,6.47915323 2,12 C2,17.5240726 6.47754032,22 12,22 C17.5224597,22 22,17.5240726 22,12 C22,6.47915323 17.5224597,2 12,2 Z M12,6.43548387 C12.9353226,6.43548387 13.6935484,7.19370968 13.6935484,8.12903226 C13.6935484,9.06435484 12.9353226,9.82258065 12,9.82258065 C11.0646774,9.82258065 10.3064516,9.06435484 10.3064516,8.12903226 C10.3064516,7.19370968 11.0646774,6.43548387 12,6.43548387 Z M14.2580645,16.6774194 C14.2580645,16.9446371 14.0414113,17.1612903 13.7741935,17.1612903 L10.2258065,17.1612903 C9.95858871,17.1612903 9.74193548,16.9446371 9.74193548,16.6774194 L9.74193548,15.7096774 C9.74193548,15.4424597 9.95858871,15.2258065 10.2258065,15.2258065 L10.7096774,15.2258065 L10.7096774,12.6451613 L10.2258065,12.6451613 C9.95858871,12.6451613 9.74193548,12.4285081 9.74193548,12.1612903 L9.74193548,11.1935484 C9.74193548,10.9263306 9.95858871,10.7096774 10.2258065,10.7096774 L12.8064516,10.7096774 C13.0736694,10.7096774 13.2903226,10.9263306 13.2903226,11.1935484 L13.2903226,15.2258065 L13.7741935,15.2258065 C14.0414113,15.2258065 14.2580645,15.4424597 14.2580645,15.7096774 L14.2580645,16.6774194 Z"/>
</svg>
