<svg xmlns="http://www.w3.org/2000/svg" xmlns:xlink="http://www.w3.org/1999/xlink" width="24" height="24" viewBox="0 0 24 24">
  <path id="alert-a" d="M20.7974102,17.7504063 C21.3742225,18.7502188 20.6501914,20 19.4981293,20 L4.50169603,20 C3.34741511,20 2.62672781,18.7482813 3.20241515,17.7504063 L10.7007255,4.7495314 C11.2778191,3.74925016 12.7232249,3.75106266 13.2992873,4.7495314 L20.7974102,17.7504063 Z M12.0000064,15.0625 C11.2061004,15.0625 10.5625068,15.7060938 10.5625068,16.5 C10.5625068,17.2939063 11.2061004,17.9375 12.0000064,17.9375 C12.7939124,17.9375 13.437506,17.2939063 13.437506,16.5 C13.437506,15.7060938 12.7939124,15.0625 12.0000064,15.0625 Z M10.6352255,9.8954376 L10.867038,14.1454376 C10.8778817,14.3443126 11.0423192,14.5000001 11.2414754,14.5000001 L12.7585374,14.5000001 C12.9576936,14.5000001 13.1221311,14.3443126 13.1329748,14.1454376 L13.3647873,9.8954376 C13.376506,9.6806251 13.2054748,9.5000001 12.9903499,9.5000001 L11.0096317,9.5000001 C10.7945067,9.5000001 10.6235068,9.6806251 10.6352255,9.8954376 Z"/>
</svg>
