<svg width="24" height="24" viewBox="0 0 24 24" fill="none" xmlns="http://www.w3.org/2000/svg">
<path d="M18.3805 6.60521C18.7177 6.95614 19 7.658 19 8.16071V19.0893C19 19.592 18.608 20 18.125 20H5.875C5.392 20 5 19.592 5 19.0893V3.91071C5 3.408 5.392 3 5.875 3H14.0417C14.5247 3 15.199 3.29386 15.5362 3.64479L18.3805 6.60521ZM14.3339 4.29018V7.85714H17.761C17.7062 7.69564 17.6245 7.53475 17.5603 7.46796L14.7072 4.49843C14.6437 4.43225 14.4885 4.34664 14.3333 4.28957L14.3339 4.29018ZM17.8339 18.7857V9.07143H14.0422C13.5592 9.07143 13.1672 8.66343 13.1672 8.16071V4.21429H6.16725V18.7857H17.8339Z" />
</svg>
