<?xml version="1.0" encoding="UTF-8"?><!DOCTYPE svg PUBLIC "-//W3C//DTD SVG 1.1//EN" "http://www.w3.org/Graphics/SVG/1.1/DTD/svg11.dtd"><svg xmlns="http://www.w3.org/2000/svg"><symbol id="icon-caret-down" viewBox="0 0 18 28"><title>caret-down</title><path d="M16.797 11.5a.54.54 0 0 1-.156.359L9.36 19.14c-.094.094-.234.156-.359.156s-.266-.063-.359-.156l-7.281-7.281c-.094-.094-.156-.234-.156-.359s.063-.266.156-.359l.781-.781a.508.508 0 0 1 .359-.156.54.54 0 0 1 .359.156l6.141 6.141 6.141-6.141c.094-.094.234-.156.359-.156s.266.063.359.156l.781.781a.536.536 0 0 1 .156.359z"/></symbol><symbol id="icon-caret-right" viewBox="0 0 9 28"><title>caret-right</title><path d="M9.297 15a.54.54 0 0 1-.156.359L1.86 22.64c-.094.094-.234.156-.359.156s-.266-.063-.359-.156l-.781-.781a.508.508 0 0 1-.156-.359.54.54 0 0 1 .156-.359L6.502 15 .361 8.859C.267 8.765.205 8.625.205 8.5s.063-.266.156-.359l.781-.781c.094-.094.234-.156.359-.156s.266.063.359.156l7.281 7.281a.536.536 0 0 1 .156.359z"/></symbol><symbol id="icon-external" viewBox="0 0 28 28"><title>external</title><path d="M22 14.5v5c0 2.484-2.016 4.5-4.5 4.5h-13A4.502 4.502 0 0 1 0 19.5v-13C0 4.016 2.016 2 4.5 2h11c.281 0 .5.219.5.5v1c0 .281-.219.5-.5.5h-11A2.507 2.507 0 0 0 2 6.5v13C2 20.875 3.125 22 4.5 22h13c1.375 0 2.5-1.125 2.5-2.5v-5c0-.281.219-.5.5-.5h1c.281 0 .5.219.5.5zM28 1v8c0 .547-.453 1-1 1a.99.99 0 0 1-.703-.297l-2.75-2.75L13.36 17.14c-.094.094-.234.156-.359.156s-.266-.063-.359-.156l-1.781-1.781c-.094-.094-.156-.234-.156-.359s.063-.266.156-.359L21.048 4.454l-2.75-2.75a.996.996 0 0 1-.297-.703c0-.547.453-1 1-1h8c.547 0 1 .453 1 1z"/></symbol><symbol id="icon-facebook" viewBox="0 0 16 16"><path d="M15.116 0H.883A.883.883 0 0 0 0 .883v14.233c0 .489.396.884.883.884h7.663V9.804H6.46V7.389h2.085V5.608c0-2.066 1.262-3.192 3.105-3.192.884 0 1.642.066 1.863.095v2.16h-1.279c-1.002 0-1.196.477-1.196 1.176v1.541h2.392l-.313 2.415H11.04v6.196h4.077a.884.884 0 0 0 .884-.883V.883A.883.883 0 0 0 15.116 0z" fill-rule="evenodd"/></symbol><symbol id="icon-github" viewBox="0 0 24 28"><title>github</title><path d="M12 2c6.625 0 12 5.375 12 12 0 5.297-3.437 9.797-8.203 11.391-.609.109-.828-.266-.828-.578 0-.391.016-1.687.016-3.297 0-1.125-.375-1.844-.812-2.219 2.672-.297 5.484-1.313 5.484-5.922 0-1.313-.469-2.375-1.234-3.219.125-.313.531-1.531-.125-3.187-1-.313-3.297 1.234-3.297 1.234a11.28 11.28 0 0 0-6 0S6.704 6.656 5.704 6.969c-.656 1.656-.25 2.875-.125 3.187-.766.844-1.234 1.906-1.234 3.219 0 4.594 2.797 5.625 5.469 5.922-.344.313-.656.844-.766 1.609-.688.313-2.438.844-3.484-1-.656-1.141-1.844-1.234-1.844-1.234-1.172-.016-.078.734-.078.734.781.359 1.328 1.75 1.328 1.75.703 2.141 4.047 1.422 4.047 1.422 0 1 .016 1.937.016 2.234 0 .313-.219.688-.828.578C3.439 23.796.002 19.296.002 13.999c0-6.625 5.375-12 12-12zM4.547 19.234c.031-.063-.016-.141-.109-.187-.094-.031-.172-.016-.203.031-.031.063.016.141.109.187.078.047.172.031.203-.031zm.484.532c.063-.047.047-.156-.031-.25-.078-.078-.187-.109-.25-.047-.063.047-.047.156.031.25.078.078.187.109.25.047zm.469.703c.078-.063.078-.187 0-.297-.063-.109-.187-.156-.266-.094-.078.047-.078.172 0 .281s.203.156.266.109zm.656.656c.063-.063.031-.203-.063-.297-.109-.109-.25-.125-.313-.047-.078.063-.047.203.063.297.109.109.25.125.313.047zm.891.391c.031-.094-.063-.203-.203-.25-.125-.031-.266.016-.297.109s.063.203.203.234c.125.047.266 0 .297-.094zm.984.078c0-.109-.125-.187-.266-.172-.141 0-.25.078-.25.172 0 .109.109.187.266.172.141 0 .25-.078.25-.172zm.906-.156c-.016-.094-.141-.156-.281-.141-.141.031-.234.125-.219.234.016.094.141.156.281.125s.234-.125.219-.219z"/></symbol><symbol id="icon-instagram" viewBox="0 0 24 28"><title>instagram</title><path d="M16 14c0-2.203-1.797-4-4-4s-4 1.797-4 4 1.797 4 4 4 4-1.797 4-4zm2.156 0c0 3.406-2.75 6.156-6.156 6.156S5.844 17.406 5.844 14 8.594 7.844 12 7.844s6.156 2.75 6.156 6.156zm1.688-6.406c0 .797-.641 1.437-1.437 1.437S16.97 8.39 16.97 7.594s.641-1.437 1.437-1.437 1.437.641 1.437 1.437zM12 4.156c-1.75 0-5.5-.141-7.078.484-.547.219-.953.484-1.375.906s-.688.828-.906 1.375c-.625 1.578-.484 5.328-.484 7.078s-.141 5.5.484 7.078c.219.547.484.953.906 1.375s.828.688 1.375.906c1.578.625 5.328.484 7.078.484s5.5.141 7.078-.484c.547-.219.953-.484 1.375-.906s.688-.828.906-1.375c.625-1.578.484-5.328.484-7.078s.141-5.5-.484-7.078c-.219-.547-.484-.953-.906-1.375s-.828-.688-1.375-.906C17.5 4.015 13.75 4.156 12 4.156zM24 14c0 1.656.016 3.297-.078 4.953-.094 1.922-.531 3.625-1.937 5.031s-3.109 1.844-5.031 1.937c-1.656.094-3.297.078-4.953.078s-3.297.016-4.953-.078c-1.922-.094-3.625-.531-5.031-1.937S.173 20.875.08 18.953C-.014 17.297.002 15.656.002 14s-.016-3.297.078-4.953c.094-1.922.531-3.625 1.937-5.031s3.109-1.844 5.031-1.937c1.656-.094 3.297-.078 4.953-.078s3.297-.016 4.953.078c1.922.094 3.625.531 5.031 1.937s1.844 3.109 1.937 5.031C24.016 10.703 24 12.344 24 14z"/></symbol><symbol id="icon-linkedin" viewBox="0 0 27 32"><path d="M6.232 11.161v17.696H.339V11.161h5.893zm.375-5.465Q6.625 7 5.705 7.875t-2.42.875h-.036q-1.464 0-2.357-.875t-.893-2.179q0-1.321.92-2.188t2.402-.866 2.375.866.911 2.188zm20.822 13.018v10.143h-5.875v-9.464q0-1.875-.723-2.938t-2.259-1.063q-1.125 0-1.884.616t-1.134 1.527q-.196.536-.196 1.446v9.875H9.483q.036-7.125.036-11.554t-.018-5.286l-.018-.857h5.875v2.571h-.036q.357-.571.732-1t1.009-.929 1.554-.777 2.045-.277q3.054 0 4.911 2.027t1.857 5.938z"/></symbol><symbol id="icon-mail" viewBox="0 0 28 28"><title>mail</title><path d="M26 23.5v-12a8.408 8.408 0 0 1-1.078 1.031c-2.234 1.719-4.484 3.469-6.656 5.281-1.172.984-2.625 2.188-4.25 2.188h-.031c-1.625 0-3.078-1.203-4.25-2.188-2.172-1.813-4.422-3.563-6.656-5.281A8.411 8.411 0 0 1 2.001 11.5v12c0 .266.234.5.5.5h23c.266 0 .5-.234.5-.5zm0-16.422C26 6.687 26.094 6 25.5 6h-23c-.266 0-.5.234-.5.5 0 1.781.891 3.328 2.297 4.438a980.43 980.43 0 0 1 6.266 4.953c.828.672 2.328 2.109 3.422 2.109h.031c1.094 0 2.594-1.437 3.422-2.109a946.207 946.207 0 0 1 6.266-4.953c1.016-.797 2.297-2.531 2.297-3.859zm2-.578v17c0 1.375-1.125 2.5-2.5 2.5h-23A2.507 2.507 0 0 1 0 23.5v-17C0 5.125 1.125 4 2.5 4h23C26.875 4 28 5.125 28 6.5z"/></symbol><symbol id="icon-twitter" viewBox="0 0 30 32"><path d="M28.929 7.286q-1.196 1.75-2.893 2.982.018.25.018.75 0 2.321-.679 4.634t-2.063 4.437-3.295 3.759-4.607 2.607-5.768.973q-4.839 0-8.857-2.589.625.071 1.393.071 4.018 0 7.161-2.464-1.875-.036-3.357-1.152t-2.036-2.848q.589.089 1.089.089.768 0 1.518-.196-2-.411-3.313-1.991t-1.313-3.67v-.071q1.214.679 2.607.732-1.179-.786-1.875-2.054t-.696-2.75q0-1.571.786-2.911Q4.91 8.285 8.008 9.883t6.634 1.777q-.143-.679-.143-1.321 0-2.393 1.688-4.08t4.08-1.688q2.5 0 4.214 1.821 1.946-.375 3.661-1.393-.661 2.054-2.536 3.179 1.661-.179 3.321-.893z"/></symbol><symbol id="icon-whatsapp" viewBox="0 0 24 28"><title>whatsapp</title><path d="M15.391 15.219c.266 0 2.812 1.328 2.922 1.516.031.078.031.172.031.234 0 .391-.125.828-.266 1.188-.359.875-1.813 1.437-2.703 1.437-.75 0-2.297-.656-2.969-.969-2.234-1.016-3.625-2.75-4.969-4.734-.594-.875-1.125-1.953-1.109-3.031v-.125c.031-1.031.406-1.766 1.156-2.469.234-.219.484-.344.812-.344.187 0 .375.047.578.047.422 0 .5.125.656.531.109.266.906 2.391.906 2.547 0 .594-1.078 1.266-1.078 1.625 0 .078.031.156.078.234.344.734 1 1.578 1.594 2.141.719.688 1.484 1.141 2.359 1.578a.681.681 0 0 0 .344.109c.469 0 1.25-1.516 1.656-1.516zM12.219 23.5c5.406 0 9.812-4.406 9.812-9.812s-4.406-9.812-9.812-9.812-9.812 4.406-9.812 9.812c0 2.063.656 4.078 1.875 5.75l-1.234 3.641 3.781-1.203a9.875 9.875 0 0 0 5.391 1.625zm0-21.594C18.719 1.906 24 7.187 24 13.687s-5.281 11.781-11.781 11.781c-1.984 0-3.953-.5-5.703-1.469L0 26.093l2.125-6.328a11.728 11.728 0 0 1-1.687-6.078c0-6.5 5.281-11.781 11.781-11.781z"/></symbol><symbol id="icon-youtube" viewBox="0 0 28 28"><title>youtube</title><path d="M11.109 17.625l7.562-3.906-7.562-3.953v7.859zM14 4.156c5.891 0 9.797.281 9.797.281.547.063 1.75.063 2.812 1.188 0 0 .859.844 1.109 2.781.297 2.266.281 4.531.281 4.531v2.125s.016 2.266-.281 4.531c-.25 1.922-1.109 2.781-1.109 2.781-1.062 1.109-2.266 1.109-2.812 1.172 0 0-3.906.297-9.797.297-7.281-.063-9.516-.281-9.516-.281-.625-.109-2.031-.078-3.094-1.188 0 0-.859-.859-1.109-2.781C-.016 17.327 0 15.062 0 15.062v-2.125s-.016-2.266.281-4.531C.531 6.469 1.39 5.625 1.39 5.625 2.452 4.5 3.656 4.5 4.202 4.437c0 0 3.906-.281 9.797-.281z"/></symbol></svg>