<?xml version="1.0" encoding="UTF-8"?><!DOCTYPE svg PUBLIC "-//W3C//DTD SVG 1.1//EN" "http://www.w3.org/Graphics/SVG/1.1/DTD/svg11.dtd"><svg xmlns="http://www.w3.org/2000/svg" xmlns:xlink="http://www.w3.org/1999/xlink"><symbol id="icon-arrow-down" viewBox="0 0 24 24"><path d="M20 12l-1.41-1.41L13 16.17V4h-2v12.17l-5.59-5.58L4 12l8 8 8-8z"/></symbol><symbol id="icon-arrow-left" viewBox="0 0 24 24"><path d="M12 20l1.41-1.41L7.83 13H20v-2H7.83l5.58-5.59L12 4l-8 8 8 8z"/></symbol><symbol id="icon-arrow-right" viewBox="0 0 24 24"><path d="M12 4l-1.41 1.41L16.17 11H4v2h12.17l-5.58 5.59L12 20l8-8-8-8z"/></symbol><symbol id="icon-arrow-up" viewBox="0 0 24 24"><path d="M4 12l1.41 1.41L11 7.83V20h2V7.83l5.59 5.58L20 12l-8-8-8 8z"/></symbol><symbol id="icon-caret-down" viewBox="0 0 24 24"><path d="M7 10l5 5 5-5H7z"/></symbol><symbol id="icon-caret-left" viewBox="0 0 24 24"><path d="M14 7l-5 5 5 5V7z"/></symbol><symbol id="icon-caret-right" viewBox="0 0 24 24"><path d="M10 17l5-5-5-5v10z"/></symbol><symbol id="icon-caret-up" viewBox="0 0 24 24"><path d="M17 14l-5-5-5 5h10z"/></symbol><symbol id="icon-checkmark" viewBox="0 0 24 24"><path d="M9 16.17L4.83 12l-1.42 1.41L9 19 21 7l-1.41-1.41L9 16.17z"/></symbol><symbol id="icon-chevron-down" viewBox="0 0 24 24"><path d="M7.41 8.59L12 13.17l4.59-4.58L18 10l-6 6-6-6 1.41-1.41z"/></symbol><symbol id="icon-chevron-left" viewBox="0 0 24 24"><path d="M15.41 16.59L10.83 12l4.58-4.59L14 6l-6 6 6 6 1.41-1.41z"/></symbol><symbol id="icon-chevron-right" viewBox="0 0 24 24"><path d="M8.59 16.59L13.17 12 8.59 7.41 10 6l6 6-6 6-1.41-1.41z"/></symbol><symbol id="icon-chevron-up" viewBox="0 0 24 24"><path d="M7.41 15.41L12 10.83l4.59 4.58L18 14l-6-6-6 6 1.41 1.41z"/></symbol><symbol id="icon-external" viewBox="0 0 28 28"><path d="M22 14.5v5c0 2.484-2.016 4.5-4.5 4.5h-13A4.502 4.502 0 010 19.5v-13C0 4.016 2.016 2 4.5 2h11c.281 0 .5.219.5.5v1c0 .281-.219.5-.5.5h-11A2.507 2.507 0 002 6.5v13C2 20.875 3.125 22 4.5 22h13c1.375 0 2.5-1.125 2.5-2.5v-5c0-.281.219-.5.5-.5h1c.281 0 .5.219.5.5zM28 1v8c0 .547-.453 1-1 1a.99.99 0 01-.703-.297l-2.75-2.75L13.36 17.14c-.094.094-.234.156-.359.156s-.266-.063-.359-.156l-1.781-1.781c-.094-.094-.156-.234-.156-.359s.063-.266.156-.359L21.048 4.454l-2.75-2.75a.996.996 0 01-.297-.703c0-.547.453-1 1-1h8c.547 0 1 .453 1 1z"/></symbol><symbol id="icon-facebook" viewBox="0 0 24 24"><path d="M19.116 4H4.883A.883.883 0 004 4.883v14.233c0 .489.396.884.883.884h7.663v-6.196H10.46v-2.415h2.085V9.608c0-2.066 1.261-3.192 3.105-3.192a17.2 17.2 0 011.863.095v2.16h-1.279c-1.002 0-1.195.477-1.195 1.176v1.541h2.391l-.313 2.415H15.04v6.196h4.077a.884.884 0 00.884-.883V4.883A.883.883 0 0019.116 4z"/></symbol><symbol id="icon-github" viewBox="0 0 24 28"><path d="M12 2c6.625 0 12 5.375 12 12 0 5.297-3.437 9.797-8.203 11.391-.609.109-.828-.266-.828-.578 0-.391.016-1.687.016-3.297 0-1.125-.375-1.844-.812-2.219 2.672-.297 5.484-1.313 5.484-5.922 0-1.313-.469-2.375-1.234-3.219.125-.313.531-1.531-.125-3.187-1-.313-3.297 1.234-3.297 1.234a11.28 11.28 0 00-6 0S6.704 6.656 5.704 6.969c-.656 1.656-.25 2.875-.125 3.187-.766.844-1.234 1.906-1.234 3.219 0 4.594 2.797 5.625 5.469 5.922-.344.313-.656.844-.766 1.609-.688.313-2.438.844-3.484-1-.656-1.141-1.844-1.234-1.844-1.234-1.172-.016-.078.734-.078.734.781.359 1.328 1.75 1.328 1.75.703 2.141 4.047 1.422 4.047 1.422 0 1 .016 1.937.016 2.234 0 .313-.219.688-.828.578C3.439 23.796.002 19.296.002 13.999c0-6.625 5.375-12 12-12zM4.547 19.234c.031-.063-.016-.141-.109-.187-.094-.031-.172-.016-.203.031-.031.063.016.141.109.187.078.047.172.031.203-.031zm.484.532c.063-.047.047-.156-.031-.25-.078-.078-.187-.109-.25-.047-.063.047-.047.156.031.25.078.078.187.109.25.047zm.469.703c.078-.063.078-.187 0-.297-.063-.109-.187-.156-.266-.094-.078.047-.078.172 0 .281s.203.156.266.109zm.656.656c.063-.063.031-.203-.063-.297-.109-.109-.25-.125-.313-.047-.078.063-.047.203.063.297.109.109.25.125.313.047zm.891.391c.031-.094-.063-.203-.203-.25-.125-.031-.266.016-.297.109s.063.203.203.234c.125.047.266 0 .297-.094zm.984.078c0-.109-.125-.187-.266-.172-.141 0-.25.078-.25.172 0 .109.109.187.266.172.141 0 .25-.078.25-.172zm.906-.156c-.016-.094-.141-.156-.281-.141-.141.031-.234.125-.219.234.016.094.141.156.281.125s.234-.125.219-.219z"/></symbol><symbol id="icon-instagram" viewBox="0 0 24 24"><path d="M14.708 11.786c0-1.57-1.28-2.851-2.85-2.851a2.857 2.857 0 00-2.852 2.85 2.856 2.856 0 002.851 2.852 2.857 2.857 0 002.851-2.851zm1.537 0a4.382 4.382 0 01-4.388 4.388 4.382 4.382 0 01-4.388-4.388 4.382 4.382 0 014.388-4.388 4.382 4.382 0 014.388 4.388zm1.203-4.566c0 .568-.457 1.024-1.025 1.024A1.022 1.022 0 0115.4 7.22c0-.568.456-1.025 1.024-1.025.568 0 1.025.457 1.025 1.025zm-5.59-2.45c-1.248 0-3.921-.1-5.046.345-.39.156-.68.345-.98.646-.3.3-.49.59-.646.98-.445 1.125-.345 3.797-.345 5.045 0 1.247-.1 3.92.345 5.045.156.39.345.679.646.98.3.3.59.49.98.646 1.125.445 3.798.345 5.045.345 1.248 0 3.92.1 5.045-.345.39-.156.68-.346.98-.646.3-.301.49-.59.646-.98.446-1.125.345-3.798.345-5.045 0-1.248.1-3.92-.345-5.045a2.734 2.734 0 00-.646-.98c-.3-.301-.59-.49-.98-.646-1.125-.446-3.798-.345-5.045-.345zm8.552 7.016c0 1.18.011 2.35-.055 3.53-.067 1.37-.38 2.584-1.381 3.586-1.003 1.002-2.217 1.314-3.587 1.381-1.18.067-2.35.056-3.53.056-1.18 0-2.35.01-3.53-.056-1.37-.067-2.584-.379-3.586-1.38-1.003-1.003-1.314-2.217-1.381-3.587-.067-1.18-.056-2.35-.056-3.53 0-1.18-.011-2.35.056-3.53.067-1.37.378-2.584 1.38-3.587 1.003-1.002 2.217-1.314 3.587-1.38 1.18-.067 2.35-.056 3.53-.056 1.18 0 2.35-.011 3.53.055 1.37.067 2.584.379 3.587 1.381 1.002 1.003 1.314 2.217 1.38 3.586.067 1.18.056 2.35.056 3.53z"/></symbol><symbol id="icon-linkedin" viewBox="0 0 24 24"><path d="M7.635 8.484H4.198v10.322h3.437V8.485zm.22-3.188c-.011-1.01-.74-1.781-1.918-1.781C4.771 3.515 4 4.285 4 5.296c0 .99.74 1.781 1.896 1.781h.02c1.199 0 1.949-.791 1.938-1.78zm5.103 4.655V8.484H9.531s.042.968 0 10.322h3.427v-5.76c0-.312.032-.614.115-.844.25-.614.812-1.25 1.76-1.25 1.24 0 1.74.948 1.74 2.334v5.52H20V12.89c0-3.167-1.688-4.646-3.948-4.646-1.826 0-2.641 1-3.094 1.707z"/></symbol><symbol id="icon-location" viewBox="0 0 24 24"><path d="M12 2C8.13 2 5 5.13 5 9c0 5.25 7 13 7 13s7-7.75 7-13c0-3.87-3.13-7-7-7zm0 9.5a2.5 2.5 0 010-5 2.5 2.5 0 010 5z"/></symbol><symbol id="icon-minus" viewBox="0 0 24 24"><path d="M19 13H5v-2h14v2z"/></symbol><symbol id="icon-plus" viewBox="0 0 24 24"><path d="M19 13h-6v6h-2v-6H5v-2h6V5h2v6h6v2z"/></symbol><symbol id="icon-search" viewBox="0 0 24 24"><path d="M15.5 14h-.79l-.28-.27A6.471 6.471 0 0016 9.5 6.5 6.5 0 109.5 16c1.61 0 3.09-.59 4.23-1.57l.27.28v.79l5 4.99L20.49 19l-4.99-5zm-6 0C7.01 14 5 11.99 5 9.5S7.01 5 9.5 5 14 7.01 14 9.5 11.99 14 9.5 14z"/></symbol><symbol id="icon-twitter" viewBox="0 0 24 24"><path d="M20.488 6.662a7.083 7.083 0 01-2.035.547 3.524 3.524 0 001.553-1.946 6.97 6.97 0 01-2.242.853A3.524 3.524 0 0015.183 5a3.531 3.531 0 00-3.533 3.533c0 .273.033.547.088.81a10.042 10.042 0 01-7.285-3.698 3.507 3.507 0 00-.481 1.783 3.53 3.53 0 001.575 2.942 3.558 3.558 0 01-1.597-.448v.044a3.533 3.533 0 002.833 3.467 3.769 3.769 0 01-1.597.065 3.539 3.539 0 003.303 2.45 7.075 7.075 0 01-4.386 1.51 7.26 7.26 0 01-.853-.044A9.983 9.983 0 008.675 19c6.497 0 10.052-5.381 10.052-10.052 0-.153 0-.306-.011-.459a7.595 7.595 0 001.771-1.827z"/></symbol><symbol id="icon-whatsapp" viewBox="0 0 24 28"><path d="M15.391 15.219c.266 0 2.812 1.328 2.922 1.516.031.078.031.172.031.234 0 .391-.125.828-.266 1.188-.359.875-1.813 1.437-2.703 1.437-.75 0-2.297-.656-2.969-.969-2.234-1.016-3.625-2.75-4.969-4.734-.594-.875-1.125-1.953-1.109-3.031v-.125c.031-1.031.406-1.766 1.156-2.469.234-.219.484-.344.812-.344.187 0 .375.047.578.047.422 0 .5.125.656.531.109.266.906 2.391.906 2.547 0 .594-1.078 1.266-1.078 1.625 0 .078.031.156.078.234.344.734 1 1.578 1.594 2.141.719.688 1.484 1.141 2.359 1.578a.681.681 0 00.344.109c.469 0 1.25-1.516 1.656-1.516zM12.219 23.5c5.406 0 9.812-4.406 9.812-9.812s-4.406-9.812-9.812-9.812-9.812 4.406-9.812 9.812c0 2.063.656 4.078 1.875 5.75l-1.234 3.641 3.781-1.203a9.875 9.875 0 005.391 1.625zm0-21.594C18.719 1.906 24 7.187 24 13.687s-5.281 11.781-11.781 11.781c-1.984 0-3.953-.5-5.703-1.469L0 26.093l2.125-6.328a11.728 11.728 0 01-1.687-6.078c0-6.5 5.281-11.781 11.781-11.781z"/></symbol><symbol id="icon-youtube" viewBox="0 0 24 24"><path d="M16.286 12.143a.693.693 0 00-.335-.603l-5.714-3.57a.706.706 0 00-.726-.023.723.723 0 00-.368.625v7.143c0 .257.145.502.368.625a.76.76 0 00.346.09.657.657 0 00.38-.112l5.714-3.572a.693.693 0 00.335-.602zm5.714 0c0 1.596 0 3.292-.357 4.844-.235 1.093-1.105 1.897-2.154 2.02-2.478.279-4.989.279-7.489.279s-5.011 0-7.489-.28c-1.049-.122-1.92-.926-2.165-2.02C2 15.437 2 13.74 2 12.144s0-3.293.357-4.844c.246-1.094 1.105-1.897 2.154-2.02C6.99 5 9.5 5 12 5s5.011 0 7.489.279c1.049.123 1.92.926 2.165 2.02C22 8.85 22 10.547 22 12.143z"/></symbol><symbol id="icon-close" viewBox="0 0 24 24"><path d="M19 6.41L17.59 5 12 10.59 6.41 5 5 6.41 10.59 12 5 17.59 6.41 19 12 13.41 17.59 19 19 17.59 13.41 12 19 6.41z"/></symbol><symbol id="icon-menu" viewBox="0 0 24 24"><path d="M3 18h18v-2H3v2zm0-5h18v-2H3v2zm0-7v2h18V6H3z"/></symbol></svg>