<?xml version="1.0" encoding="UTF-8"?><!DOCTYPE svg PUBLIC "-//W3C//DTD SVG 1.1//EN" "http://www.w3.org/Graphics/SVG/1.1/DTD/svg11.dtd"><svg xmlns="http://www.w3.org/2000/svg" xmlns:xlink="http://www.w3.org/1999/xlink"><symbol id="icon-arrow-down" viewBox="0 0 24 24"><path d="M20 12l-1.41-1.41L13 16.17V4h-2v12.17l-5.59-5.58L4 12l8 8 8-8z" fill="currentColor"/></symbol><symbol id="icon-arrow-left" viewBox="0 0 24 24"><path d="M12 20l1.41-1.41L7.83 13H20v-2H7.83l5.58-5.59L12 4l-8 8 8 8z" fill="currentColor"/></symbol><symbol id="icon-arrow-right" viewBox="0 0 24 24"><path d="M12 4l-1.41 1.41L16.17 11H4v2h12.17l-5.58 5.59L12 20l8-8-8-8z" fill="currentColor"/></symbol><symbol id="icon-arrow-up" viewBox="0 0 24 24"><path d="M4 12l1.41 1.41L11 7.83V20h2V7.83l5.59 5.58L20 12l-8-8-8 8z" fill="currentColor"/></symbol><symbol id="icon-caret-down" viewBox="0 0 24 24"><path d="M7 10l5 5 5-5H7z" fill="currentColor"/></symbol><symbol id="icon-caret-left" viewBox="0 0 24 24"><path d="M14 7l-5 5 5 5V7z" fill="currentColor"/></symbol><symbol id="icon-caret-right" viewBox="0 0 24 24"><path d="M10 17l5-5-5-5v10z" fill="currentColor"/></symbol><symbol id="icon-caret-up" viewBox="0 0 24 24"><path d="M17 14l-5-5-5 5h10z" fill="currentColor"/></symbol><symbol id="icon-checkmark" viewBox="0 0 24 24"><path d="M9 16.17L4.83 12l-1.42 1.41L9 19 21 7l-1.41-1.41L9 16.17z" fill="currentColor"/></symbol><symbol id="icon-chevron-down" viewBox="0 0 24 24"><path d="M7.41 8.59L12 13.17l4.59-4.58L18 10l-6 6-6-6 1.41-1.41z" fill="currentColor"/></symbol><symbol id="icon-chevron-left" viewBox="0 0 24 24"><path d="M15.41 16.59L10.83 12l4.58-4.59L14 6l-6 6 6 6 1.41-1.41z" fill="currentColor"/></symbol><symbol id="icon-chevron-right" viewBox="0 0 24 24"><path d="M8.59 16.59L13.17 12 8.59 7.41 10 6l6 6-6 6-1.41-1.41z" fill="currentColor"/></symbol><symbol id="icon-chevron-up" viewBox="0 0 24 24"><path d="M7.41 15.41L12 10.83l4.59 4.58L18 14l-6-6-6 6 1.41 1.41z" fill="currentColor"/></symbol><symbol id="icon-close" viewBox="0 0 24 24"><path d="M19 6.41L17.59 5 12 10.59 6.41 5 5 6.41 10.59 12 5 17.59 6.41 19 12 13.41 17.59 19 19 17.59 13.41 12 19 6.41z" fill="currentColor"/></symbol><symbol id="icon-external" viewBox="0 0 24 24"><path d="M16.571 12.46v2.916C16.571 16.825 15.419 18 14 18H6.57C5.152 18.001 4 16.825 4 15.376V7.792c0-1.449 1.152-2.625 2.571-2.625h6.286c.16 0 .286.128.286.292v.583a.285.285 0 01-.286.292H6.57c-.785 0-1.428.656-1.428 1.458v7.584c0 .802.643 1.458 1.428 1.458H14c.785 0 1.428-.656 1.428-1.458v-2.917c0-.164.125-.292.286-.292h.571c.16 0 .286.128.286.292zm3.428-7.876V9.25a.58.58 0 01-.571.583.56.56 0 01-.402-.173l-1.571-1.605L11.634 14a.303.303 0 01-.205.091.305.305 0 01-.205-.09l-1.018-1.04a.316.316 0 01-.09-.21c0-.072.037-.154.09-.209L16.027 6.6l-1.571-1.605a.581.581 0 01.402-.993h4.57c.313 0 .572.264.572.583z" fill="currentColor"/></symbol><symbol id="icon-facebook" viewBox="0 0 24 24"><path d="M19.116 4H4.883A.883.883 0 004 4.883v14.233c0 .489.396.884.883.884h7.663v-6.196H10.46v-2.415h2.085V9.608c0-2.066 1.261-3.192 3.105-3.192a17.2 17.2 0 011.863.095v2.16h-1.279c-1.002 0-1.195.477-1.195 1.176v1.541h2.391l-.313 2.415H15.04v6.196h4.077a.884.884 0 00.884-.883V4.883A.883.883 0 0019.116 4z" fill="currentColor"/></symbol><symbol id="icon-github" viewBox="0 0 24 24"><path d="M12 4c4.416 0 8 3.674 8 8.202 0 3.62-2.291 6.695-5.47 7.785-.405.074-.551-.182-.551-.395 0-.267.01-1.153.01-2.253 0-.77-.25-1.26-.54-1.517 1.78-.203 3.655-.897 3.655-4.047 0-.898-.312-1.623-.822-2.2.083-.214.354-1.047-.084-2.178C15.532 7.183 14 8.24 14 8.24a7.349 7.349 0 00-4 0s-1.532-1.057-2.198-.843c-.438 1.131-.167 1.965-.084 2.178a3.22 3.22 0 00-.822 2.2c0 3.14 1.864 3.844 3.646 4.047-.23.214-.438.577-.51 1.1-.46.213-1.626.576-2.324-.684-.437-.78-1.23-.843-1.23-.843-.78-.011-.051.502-.051.502.52.245.885 1.196.885 1.196.469 1.463 2.699.971 2.699.971 0 .684.01 1.324.01 1.527 0 .214-.146.47-.552.395C6.292 18.896 4 15.821 4 12.201 4 7.673 7.584 4 12 4zM7.03 15.78c.02-.043-.01-.096-.072-.128-.063-.021-.115-.01-.136.021-.02.043.01.097.073.128.052.032.115.021.135-.021zm.323.363c.042-.032.031-.106-.02-.17-.053-.054-.125-.075-.167-.032-.042.032-.032.106.02.17.052.054.125.075.167.032zm.313.481c.052-.043.052-.128 0-.203-.042-.075-.125-.107-.178-.064-.052.032-.052.117 0 .192.052.074.136.106.178.074v.001zm.437.448c.042-.043.02-.138-.042-.203-.073-.074-.167-.085-.209-.032-.052.043-.031.139.042.203.073.075.167.086.209.032zm.594.267c.02-.064-.042-.138-.135-.17-.084-.021-.178.01-.198.074-.021.064.042.139.135.16.083.032.177 0 .198-.064zm.656.054c0-.075-.083-.128-.177-.118-.094 0-.167.054-.167.118 0 .074.073.128.177.117.094 0 .167-.053.167-.117zm.604-.107c-.01-.064-.094-.106-.187-.096-.094.021-.156.085-.146.16.01.064.094.106.187.085.093-.021.156-.085.146-.15v.001z" fill="currentColor"/></symbol><symbol id="icon-instagram" viewBox="0 0 24 24"><path d="M14.708 11.786c0-1.57-1.28-2.851-2.85-2.851a2.857 2.857 0 00-2.852 2.85 2.856 2.856 0 002.851 2.852 2.857 2.857 0 002.851-2.851zm1.537 0a4.382 4.382 0 01-4.388 4.388 4.382 4.382 0 01-4.388-4.388 4.382 4.382 0 014.388-4.388 4.382 4.382 0 014.388 4.388zm1.203-4.566c0 .568-.457 1.024-1.025 1.024A1.022 1.022 0 0115.4 7.22c0-.568.456-1.025 1.024-1.025.568 0 1.025.457 1.025 1.025zm-5.59-2.45c-1.248 0-3.921-.1-5.046.345-.39.156-.68.345-.98.646-.3.3-.49.59-.646.98-.445 1.125-.345 3.797-.345 5.045 0 1.247-.1 3.92.345 5.045.156.39.345.679.646.98.3.3.59.49.98.646 1.125.445 3.798.345 5.045.345 1.248 0 3.92.1 5.045-.345.39-.156.68-.346.98-.646.3-.301.49-.59.646-.98.446-1.125.345-3.798.345-5.045 0-1.248.1-3.92-.345-5.045a2.734 2.734 0 00-.646-.98c-.3-.301-.59-.49-.98-.646-1.125-.446-3.798-.345-5.045-.345zm8.552 7.016c0 1.18.011 2.35-.055 3.53-.067 1.37-.38 2.584-1.381 3.586-1.003 1.002-2.217 1.314-3.587 1.381-1.18.067-2.35.056-3.53.056-1.18 0-2.35.01-3.53-.056-1.37-.067-2.584-.379-3.586-1.38-1.003-1.003-1.314-2.217-1.381-3.587-.067-1.18-.056-2.35-.056-3.53 0-1.18-.011-2.35.056-3.53.067-1.37.378-2.584 1.38-3.587 1.003-1.002 2.217-1.314 3.587-1.38 1.18-.067 2.35-.056 3.53-.056 1.18 0 2.35-.011 3.53.055 1.37.067 2.584.379 3.587 1.381 1.002 1.003 1.314 2.217 1.38 3.586.067 1.18.056 2.35.056 3.53z" fill="currentColor"/></symbol><symbol id="icon-linkedin" viewBox="0 0 24 24"><path d="M7.635 8.484H4.198v10.322h3.437V8.485zm.22-3.188c-.011-1.01-.74-1.781-1.918-1.781C4.771 3.515 4 4.285 4 5.296c0 .99.74 1.781 1.896 1.781h.02c1.199 0 1.949-.791 1.938-1.78zm5.103 4.655V8.484H9.531s.042.968 0 10.322h3.427v-5.76c0-.312.032-.614.115-.844.25-.614.812-1.25 1.76-1.25 1.24 0 1.74.948 1.74 2.334v5.52H20V12.89c0-3.167-1.688-4.646-3.948-4.646-1.826 0-2.641 1-3.094 1.707z" fill="currentColor"/></symbol><symbol id="icon-location" viewBox="0 0 24 24"><path d="M12 2C8.13 2 5 5.13 5 9c0 5.25 7 13 7 13s7-7.75 7-13c0-3.87-3.13-7-7-7zm0 9.5a2.5 2.5 0 010-5 2.5 2.5 0 010 5z" fill="currentColor"/></symbol><symbol id="icon-menu" viewBox="0 0 24 24"><path d="M3 18h18v-2H3v2zm0-5h18v-2H3v2zm0-7v2h18V6H3z" fill="currentColor"/></symbol><symbol id="icon-minus" viewBox="0 0 24 24"><path d="M19 13H5v-2h14v2z" fill="currentColor"/></symbol><symbol id="icon-plus" viewBox="0 0 24 24"><path d="M19 13h-6v6h-2v-6H5v-2h6V5h2v6h6v2z" fill="currentColor"/></symbol><symbol id="icon-search" viewBox="0 0 24 24"><path d="M15.5 14h-.79l-.28-.27A6.471 6.471 0 0016 9.5 6.5 6.5 0 109.5 16c1.61 0 3.09-.59 4.23-1.57l.27.28v.79l5 4.99L20.49 19l-4.99-5zm-6 0C7.01 14 5 11.99 5 9.5S7.01 5 9.5 5 14 7.01 14 9.5 11.99 14 9.5 14z" fill="currentColor"/></symbol><symbol id="icon-twitter" viewBox="0 0 24 24"><path d="M20.488 6.662a7.083 7.083 0 01-2.035.547 3.524 3.524 0 001.553-1.946 6.97 6.97 0 01-2.242.853A3.524 3.524 0 0015.183 5a3.531 3.531 0 00-3.533 3.533c0 .273.033.547.088.81a10.042 10.042 0 01-7.285-3.698 3.507 3.507 0 00-.481 1.783 3.53 3.53 0 001.575 2.942 3.558 3.558 0 01-1.597-.448v.044a3.533 3.533 0 002.833 3.467 3.769 3.769 0 01-1.597.065 3.539 3.539 0 003.303 2.45 7.075 7.075 0 01-4.386 1.51 7.26 7.26 0 01-.853-.044A9.983 9.983 0 008.675 19c6.497 0 10.052-5.381 10.052-10.052 0-.153 0-.306-.011-.459a7.595 7.595 0 001.771-1.827z" fill="currentColor"/></symbol><symbol id="icon-whatsapp" viewBox="0 0 24 24"><path d="M14.26 12.807c.178 0 1.875.878 1.949 1.003.02.051.02.113.02.154 0 .259-.083.548-.177.786-.24.58-1.209.95-1.802.95-.5 0-1.531-.433-1.98-.64-1.489-.672-2.416-1.82-3.312-3.132-.396-.579-.75-1.292-.74-2.005V9.84c.021-.682.271-1.168.771-1.633a.758.758 0 01.542-.227c.124 0 .25.03.385.03.281 0 .333.083.437.352.073.176.604 1.582.604 1.685 0 .393-.718.837-.718 1.075 0 .051.02.103.052.155.229.485.666 1.043 1.062 1.416.48.455.99.755 1.573 1.044a.456.456 0 00.23.072c.312 0 .833-1.003 1.103-1.003h.002zm-2.114 5.478c3.604 0 6.541-2.915 6.541-6.491 0-3.576-2.937-6.49-6.541-6.49-3.604 0-6.541 2.914-6.541 6.49 0 1.365.437 2.698 1.25 3.804l-.823 2.408 2.52-.796a6.62 6.62 0 003.595 1.075h-.001zm0-14.285C16.479 4 20 7.493 20 11.793c0 4.3-3.52 7.794-7.854 7.794a7.905 7.905 0 01-3.802-.972L4 20l1.417-4.186a7.713 7.713 0 01-1.125-4.02c0-4.3 3.52-7.794 7.854-7.794z" fill="currentColor"/></symbol><symbol id="icon-youtube" viewBox="0 0 24 24"><path d="M16.286 12.143a.693.693 0 00-.335-.603l-5.714-3.57a.706.706 0 00-.726-.023.723.723 0 00-.368.625v7.143c0 .257.145.502.368.625a.76.76 0 00.346.09.657.657 0 00.38-.112l5.714-3.572a.693.693 0 00.335-.602zm5.714 0c0 1.596 0 3.292-.357 4.844-.235 1.093-1.105 1.897-2.154 2.02-2.478.279-4.989.279-7.489.279s-5.011 0-7.489-.28c-1.049-.122-1.92-.926-2.165-2.02C2 15.437 2 13.74 2 12.144s0-3.293.357-4.844c.246-1.094 1.105-1.897 2.154-2.02C6.99 5 9.5 5 12 5s5.011 0 7.489.279c1.049.123 1.92.926 2.165 2.02C22 8.85 22 10.547 22 12.143z" fill="currentColor"/></symbol><symbol id="icon-file" viewBox="0 0 24 24"><path d="M18.38 6.605c.338.351.62 1.053.62 1.556v10.928c0 .503-.392.911-.875.911H5.875C5.392 20 5 19.592 5 19.09V3.91c0-.502.392-.91.875-.91h8.167c.483 0 1.157.294 1.494.645l2.845 2.96zM14.335 4.29v3.567h3.427c-.055-.161-.136-.322-.2-.389l-2.854-2.97c-.063-.066-.219-.151-.374-.208zm3.5 14.496V9.07h-3.792c-.483 0-.875-.408-.875-.91V4.214h-7v14.572h11.667z"/></symbol></svg>