<svg width="24" height="24" viewBox="0 0 24 24" fill="none" xmlns="http://www.w3.org/2000/svg">
<path d="M16.571 12.4591V15.3759C16.571 16.8249 15.419 18.001 13.9996 18.001H6.57134C5.15196 18.001 4 16.8249 4 15.3759V7.79222C4 6.34316 5.15196 5.16711 6.57134 5.16711H12.8568C13.0174 5.16711 13.1425 5.29486 13.1425 5.45879V6.04214C13.1425 6.20607 13.0174 6.33382 12.8568 6.33382H6.57134C5.78565 6.33382 5.14282 6.9901 5.14282 7.79222V15.3759C5.14282 16.178 5.78565 16.8343 6.57134 16.8343H13.9996C14.7853 16.8343 15.4282 16.178 15.4282 15.3759V12.4591C15.4282 12.2952 15.5533 12.1674 15.7139 12.1674H16.2853C16.4458 12.1674 16.571 12.2952 16.571 12.4591ZM19.9994 4.58375V9.25061C19.9994 9.56971 19.7406 9.83397 19.428 9.83397C19.276 9.83397 19.1332 9.77038 19.0263 9.66071L17.4549 8.05648L11.634 13.9991C11.5803 14.054 11.5003 14.0901 11.4289 14.0901C11.3575 14.0901 11.2769 14.0534 11.2237 13.9991L10.2061 12.9602C10.1524 12.9053 10.1169 12.8237 10.1169 12.7508C10.1169 12.6778 10.1529 12.5956 10.2061 12.5413L16.027 6.59867L14.4556 4.99443C14.3488 4.88535 14.2859 4.73892 14.2859 4.58433C14.2859 4.26524 14.5448 4.00098 14.8573 4.00098H19.4286C19.7412 4.00098 20 4.26524 20 4.58433L19.9994 4.58375Z" fill="black"/>
</svg>
