<svg xmlns="http://www.w3.org/2000/svg" xmlns:xlink="http://www.w3.org/1999/xlink" width="16" height="16" viewBox="0 0 16 16">
  <g fill-rule="evenodd" transform="translate(-4 -4)">
    <path id="facebook-a" d="M19.1163802,4 L4.88309293,4 C4.39570572,4 4,4.39491537 4,4.88309293 L4,19.1163802 C4,19.6045577 4.39570572,20 4.88309293,20 L12.5458737,20 L12.5458737,13.8038596 L10.4609102,13.8038596 L10.4609102,11.3887901 L12.5458737,11.3887901 L12.5458737,9.60785089 C12.5458737,7.54159257 13.8075479,6.41585984 15.6511888,6.41585984 C16.5350721,6.41585984 17.2930251,6.48198643 17.5140618,6.51070276 L17.5140618,8.67048673 L16.2352631,8.67101363 C15.2328262,8.67101363 15.039452,9.14759929 15.039452,9.84653889 L15.039452,11.3879997 L17.4310742,11.3879997 L17.1183561,13.8028058 L15.0391886,13.8028058 L15.0391886,19.9992096 L19.1161167,19.9992096 C19.6040308,19.9992096 20,19.6032405 20,19.1163802 L20,4.88256603 C19.9997365,4.39491537 19.6042943,4 19.1163802,4 Z"/>
  </g>
</svg>
