<svg width="24" height="24" viewBox="0 0 24 24" fill="none" xmlns="http://www.w3.org/2000/svg">
<path d="M11.9993 4.00068C16.4164 4.00068 20 7.67413 20 12.2019C20 15.822 17.7085 18.8974 14.5309 19.9868C14.1248 20.0613 13.9788 19.805 13.9788 19.5918C13.9788 19.3246 13.9895 18.4389 13.9895 17.3385C13.9895 16.5697 13.7395 16.0783 13.4481 15.822C15.2296 15.619 17.1044 14.9247 17.1044 11.7747C17.1044 10.8774 16.7917 10.1516 16.2817 9.57475C16.365 9.36084 16.6357 8.52842 16.1983 7.39665C15.5316 7.18274 14.0002 8.24001 14.0002 8.24001C13.3648 8.05822 12.6774 7.96253 12 7.96253C11.3226 7.96253 10.6352 8.0589 9.99983 8.24001C9.99983 8.24001 8.46837 7.18274 7.80165 7.39665C7.36428 8.52842 7.63497 9.36152 7.71831 9.57475C7.2076 10.1516 6.89557 10.8774 6.89557 11.7747C6.89557 14.9144 8.7604 15.619 10.5419 15.822C10.3125 16.0359 10.1045 16.3988 10.0312 16.9216C9.57246 17.1355 8.4057 17.4985 7.70831 16.2382C7.27094 15.4584 6.47887 15.3949 6.47887 15.3949C5.69747 15.3839 6.42687 15.8965 6.42687 15.8965C6.94758 16.1418 7.31228 17.0925 7.31228 17.0925C7.78098 18.5557 10.0105 18.0643 10.0105 18.0643C10.0105 18.7478 10.0212 19.3881 10.0212 19.5911C10.0212 19.805 9.87516 20.0613 9.46912 19.9861C6.29152 18.8968 4 15.8213 4 12.2012C4 7.67344 7.58363 4 12.0007 4L11.9993 4.00068ZM7.03025 15.7789C7.05092 15.7359 7.01959 15.6826 6.95758 15.6511C6.89491 15.63 6.8429 15.6402 6.82224 15.6723C6.80157 15.7154 6.8329 15.7687 6.89491 15.8001C6.94691 15.8322 7.00958 15.8213 7.03025 15.7789ZM7.35295 16.1425C7.39495 16.1104 7.38428 16.0359 7.33228 15.9717C7.28027 15.9184 7.2076 15.8972 7.1656 15.9395C7.12359 15.9717 7.13426 16.0462 7.18627 16.1104C7.23827 16.1637 7.31094 16.1849 7.35295 16.1425ZM7.66564 16.623C7.71764 16.5799 7.71764 16.4952 7.66564 16.42C7.62364 16.3455 7.54096 16.3134 7.48829 16.3558C7.43629 16.3879 7.43629 16.4733 7.48829 16.5478C7.5403 16.6223 7.62364 16.6544 7.66564 16.6223V16.623ZM8.10301 17.0713C8.14501 17.0283 8.12368 16.9326 8.06101 16.8683C7.98833 16.7938 7.89432 16.7829 7.85232 16.8362C7.80032 16.8793 7.82099 16.9749 7.89432 17.0392C7.967 17.1137 8.06101 17.1246 8.10301 17.0713ZM8.69706 17.3385C8.71773 17.2743 8.65505 17.1998 8.56171 17.1677C8.47837 17.1465 8.38437 17.1786 8.3637 17.2422C8.34303 17.3057 8.4057 17.3809 8.49904 17.4021C8.58238 17.4342 8.67639 17.4021 8.69706 17.3378V17.3385ZM9.35311 17.3918C9.35311 17.3173 9.26977 17.264 9.17576 17.2743C9.08176 17.2743 9.00908 17.3276 9.00908 17.3918C9.00908 17.4663 9.08176 17.5196 9.18643 17.5094C9.28044 17.5094 9.35311 17.4561 9.35311 17.3918ZM9.95716 17.2852C9.9465 17.221 9.86316 17.1786 9.76981 17.1889C9.67581 17.21 9.6138 17.2743 9.6238 17.3488C9.63447 17.413 9.71781 17.4554 9.81115 17.4342C9.90449 17.413 9.96716 17.3488 9.95716 17.2845V17.2852Z" fill="black"/>
</svg>
