<svg width="24" height="24" viewBox="0 0 24 24" xmlns="http://www.w3.org/2000/svg">
<path d="M14.7081 11.7857C14.7081 10.2154 13.4274 8.9347 11.8571 8.9347C10.2869 8.9347 9.00614 10.2154 9.00614 11.7857C9.00614 13.356 10.2869 14.6367 11.8571 14.6367C13.4274 14.6367 14.7081 13.356 14.7081 11.7857ZM16.245 11.7857C16.245 14.2135 14.285 16.1736 11.8571 16.1736C9.42934 16.1736 7.46927 14.2135 7.46927 11.7857C7.46927 9.35789 9.42934 7.39783 11.8571 7.39783C14.285 7.39783 16.245 9.35789 16.245 11.7857ZM17.4478 7.21964C17.4478 7.78761 16.9912 8.24422 16.4232 8.24422C15.8552 8.24422 15.3986 7.78761 15.3986 7.21964C15.3986 6.65167 15.8552 6.19506 16.4232 6.19506C16.9912 6.19506 17.4478 6.65167 17.4478 7.21964ZM11.8571 4.76956C10.6098 4.76956 7.93701 4.66933 6.8122 5.1148C6.42242 5.27071 6.13286 5.46004 5.83217 5.76073C5.53148 6.06142 5.34215 6.35098 5.18624 6.74076C4.74077 7.86557 4.841 10.5384 4.841 11.7857C4.841 13.033 4.74077 15.7058 5.18624 16.8306C5.34215 17.2204 5.53148 17.51 5.83217 17.8107C6.13286 18.1114 6.42242 18.3007 6.8122 18.4566C7.93701 18.9021 10.6098 18.8018 11.8571 18.8018C13.1045 18.8018 15.7773 18.9021 16.9021 18.4566C17.2919 18.3007 17.5814 18.1114 17.8821 17.8107C18.1828 17.51 18.3721 17.2204 18.528 16.8306C18.9735 15.7058 18.8733 13.033 18.8733 11.7857C18.8733 10.5384 18.9735 7.86557 18.528 6.74076C18.3721 6.35098 18.1828 6.06142 17.8821 5.76073C17.5814 5.46004 17.2919 5.27071 16.9021 5.1148C15.7773 4.66933 13.1045 4.76956 11.8571 4.76956ZM20.4102 11.7857C20.4102 12.9662 20.4213 14.1356 20.3545 15.316C20.2877 16.6859 19.9758 17.8998 18.9735 18.9021C17.9712 19.9044 16.7573 20.2162 15.3875 20.283C14.207 20.3498 13.0376 20.3387 11.8571 20.3387C10.6767 20.3387 9.50729 20.3498 8.3268 20.283C6.95698 20.2162 5.74308 19.9044 4.74077 18.9021C3.73847 17.8998 3.42664 16.6859 3.35982 15.316C3.293 14.1356 3.30413 12.9662 3.30413 11.7857C3.30413 10.6052 3.293 9.43585 3.35982 8.25536C3.42664 6.88554 3.73847 5.67164 4.74077 4.66933C5.74308 3.66702 6.95698 3.35519 8.3268 3.28837C9.50729 3.22155 10.6767 3.23269 11.8571 3.23269C13.0376 3.23269 14.207 3.22155 15.3875 3.28837C16.7573 3.35519 17.9712 3.66702 18.9735 4.66933C19.9758 5.67164 20.2877 6.88554 20.3545 8.25536C20.4213 9.43585 20.4102 10.6052 20.4102 11.7857Z" fill="black"/>
</svg>
