<svg width="24" height="24" viewBox="0 0 24 24" fill="none" xmlns="http://www.w3.org/2000/svg">
<path d="M14.2607 12.8067C14.438 12.8067 16.1353 13.6852 16.2087 13.8096C16.2293 13.8612 16.2293 13.9233 16.2293 13.9644C16.2293 14.223 16.146 14.5121 16.052 14.7502C15.8127 15.3291 14.8433 15.7008 14.25 15.7008C13.75 15.7008 12.7187 15.2669 12.2707 15.0598C10.7813 14.3877 9.854 13.2407 8.958 11.9282C8.562 11.3494 8.208 10.6363 8.21867 9.92318V9.84049C8.23933 9.15847 8.48933 8.67226 8.98933 8.20722C9.14533 8.06235 9.312 7.97966 9.53067 7.97966C9.65533 7.97966 9.78067 8.01075 9.916 8.01075C10.1973 8.01075 10.2493 8.09344 10.3533 8.36201C10.426 8.53797 10.9573 9.94369 10.9573 10.0469C10.9573 10.4398 10.2387 10.8844 10.2387 11.1218C10.2387 11.1734 10.2593 11.225 10.2907 11.2766C10.52 11.7622 10.9573 12.3205 11.3533 12.6929C11.8327 13.1481 12.3427 13.4477 12.926 13.7368C12.9987 13.7785 13.072 13.8089 13.1553 13.8089C13.468 13.8089 13.9887 12.8061 14.2593 12.8061L14.2607 12.8067ZM12.146 18.2847C15.75 18.2847 18.6873 15.3701 18.6873 11.7939C18.6873 8.2178 15.75 5.30318 12.146 5.30318C8.542 5.30318 5.60467 8.2178 5.60467 11.7939C5.60467 13.1586 6.042 14.4916 6.85467 15.5976L6.032 18.0062L8.55267 17.2104C9.61533 17.903 10.8753 18.2854 12.1467 18.2854L12.146 18.2847ZM12.146 4C16.4793 4 20 7.49345 20 11.7933C20 16.0931 16.4793 19.5866 12.146 19.5866C10.8233 19.5866 9.51067 19.2558 8.344 18.6148L4 20L5.41667 15.8139C4.67733 14.6047 4.292 13.2089 4.292 11.7933C4.292 7.49345 7.81267 4 12.146 4V4Z" fill="black"/>
</svg>
